<svg xmlns="http://www.w3.org/2000/svg" width="62.106" height="68.99" viewBox="0 0 62.106 68.99"><g transform="translate(-469.21 -2368)"><path d="M-23.014-2.793a2.459,2.459,0,0,1-.939,2.066A4.31,4.31,0,0,1-26.638,0H-30.79V-9.1h3.866q3.625,0,3.625,2.2a1.718,1.718,0,0,1-.229.873,2.056,2.056,0,0,1-.7.7,2.908,2.908,0,0,1-1.025.406V-4.9a2.89,2.89,0,0,1,1.162.384,2.267,2.267,0,0,1,.793.768A1.816,1.816,0,0,1-23.014-2.793Zm-3.2-3.631q0-.844-1.327-.844h-.508v1.72h.793a1.127,1.127,0,0,0,.749-.244A.786.786,0,0,0-26.213-6.424Zm.286,3.618a.828.828,0,0,0-.286-.647,1.1,1.1,0,0,0-.755-.254h-1.079v1.86h.914a1.381,1.381,0,0,0,.882-.257A.847.847,0,0,0-25.927-2.806Zm11.037-.559a3.385,3.385,0,0,1-.993,2.583,3.882,3.882,0,0,1-2.777.939,3.9,3.9,0,0,1-2.758-.917,3.283,3.283,0,0,1-.987-2.53,3.389,3.389,0,0,1,.463-1.8,3.013,3.013,0,0,1,1.32-1.168,4.558,4.558,0,0,1,1.974-.406,4.415,4.415,0,0,1,2,.425,3.1,3.1,0,0,1,1.3,1.181A3.215,3.215,0,0,1-14.89-3.364Zm-2.742.013q0-1.327-1.016-1.327t-1.016,1.39q0,1.466,1.028,1.466Q-17.632-1.822-17.632-3.352Zm10.916-.013A3.385,3.385,0,0,1-7.709-.781a3.882,3.882,0,0,1-2.777.939,3.9,3.9,0,0,1-2.758-.917,3.283,3.283,0,0,1-.987-2.53,3.389,3.389,0,0,1,.463-1.8,3.013,3.013,0,0,1,1.32-1.168,4.558,4.558,0,0,1,1.974-.406,4.415,4.415,0,0,1,2,.425,3.1,3.1,0,0,1,1.3,1.181A3.215,3.215,0,0,1-6.716-3.364Zm-2.742.013q0-1.327-1.016-1.327t-1.016,1.39q0,1.466,1.028,1.466Q-9.458-1.822-9.458-3.352ZM-1.2-.089a2.634,2.634,0,0,1-.6.168A5.513,5.513,0,0,1-2.807.159,2.425,2.425,0,0,1-4.575-.463a2.361,2.361,0,0,1-.638-1.771V-4.627H-6.235V-6.5h1.022V-7.776l2.666-.736V-6.5H-1.2v1.873H-2.547v1.949q0,.857.679.857a1.842,1.842,0,0,0,.673-.14Zm6.06-2.069A1.985,1.985,0,0,1,4.024-.448,3.953,3.953,0,0,1,1.679.159,8.155,8.155,0,0,1,.6.07,6.686,6.686,0,0,1-.454-.146v-1.9a5.173,5.173,0,0,0,2.006.533q.793,0,.793-.413a.326.326,0,0,0-.184-.282A6.507,6.507,0,0,0,1.2-2.577,2.725,2.725,0,0,1-.06-3.3,1.721,1.721,0,0,1-.454-4.475a1.874,1.874,0,0,1,.8-1.6,3.767,3.767,0,0,1,2.257-.587,7.173,7.173,0,0,1,1.8.248v1.822a5.452,5.452,0,0,0-.876-.286,3.538,3.538,0,0,0-.8-.114.871.871,0,0,0-.425.089.273.273,0,0,0-.159.248.345.345,0,0,0,.171.3,3.032,3.032,0,0,0,.686.273,3.181,3.181,0,0,1,1.428.749A1.641,1.641,0,0,1,4.865-2.158ZM10.374-.089a2.634,2.634,0,0,1-.6.168A5.513,5.513,0,0,1,8.761.159,2.425,2.425,0,0,1,6.994-.463a2.361,2.361,0,0,1-.638-1.771V-4.627H5.334V-6.5H6.356V-7.776l2.666-.736V-6.5h1.352v1.873H9.022v1.949q0,.857.679.857a1.842,1.842,0,0,0,.673-.14Zm5.667-4.094a2.1,2.1,0,0,0-.413-.127,2.088,2.088,0,0,0-.432-.057q-1.339,0-1.339,1.549V0h-2.7V-6.5h2.7v1.143h.025a2.03,2.03,0,0,1,.7-.936,1.81,1.81,0,0,1,1.066-.321.916.916,0,0,1,.387.076ZM20.362,0V-.99h-.025A2.126,2.126,0,0,1,18.356.159a1.9,1.9,0,0,1-1.441-.546,2.028,2.028,0,0,1-.521-1.46q0-1.917,2.355-2.222l1.612-.209a.615.615,0,0,0-.286-.521,1.3,1.3,0,0,0-.768-.2A5.059,5.059,0,0,0,17-4.38V-6.138a6.164,6.164,0,0,1,1.32-.375,7.684,7.684,0,0,1,1.358-.146,3.411,3.411,0,0,1,2.4.708,3.155,3.155,0,0,1,.746,2.365V0Zm-1.6-2.209a.6.6,0,0,0,.168.438.641.641,0,0,0,.479.171.852.852,0,0,0,.689-.317,1.23,1.23,0,0,0,.263-.812v-.248l-.914.127Q18.762-2.736,18.762-2.209ZM31.316-3.447a4.624,4.624,0,0,1-.362,1.885,2.922,2.922,0,0,1-1.022,1.27,2.574,2.574,0,0,1-1.485.451,1.99,1.99,0,0,1-1.733-.832h-.025V2.99h-2.7V-6.5h2.7v.882h.025a2.29,2.29,0,0,1,.838-.765,2.429,2.429,0,0,1,1.168-.276,2.322,2.322,0,0,1,1.927.838A3.718,3.718,0,0,1,31.316-3.447Zm-2.742.083a1.694,1.694,0,0,0-.238-.965.826.826,0,0,0-.733-.349.824.824,0,0,0-.7.368A1.691,1.691,0,0,0,26.638-3.3v.127a1.85,1.85,0,0,0,.229.984.754.754,0,0,0,.686.368.854.854,0,0,0,.755-.4A2.058,2.058,0,0,0,28.574-3.364Z" transform="translate(500 2434)"/><path d="M33.368,28.459A16.934,16.934,0,0,0,29,28.208H21.365v9.568H29.53a15.1,15.1,0,0,0,2.688-.223,6.611,6.611,0,0,0,2.281-.825,4.289,4.289,0,0,0,1.507-1.614,4.871,4.871,0,0,0,.591-2.425,4.222,4.222,0,0,0-3.228-4.23ZM32.32,24.084a4.23,4.23,0,0,0,2.27-1.451,4.028,4.028,0,0,0,.764-2.514A4.493,4.493,0,0,0,34.64,17.6,3.3,3.3,0,0,0,32.6,16.33a20.8,20.8,0,0,0-4.541-.186h-6.7v8.32h7.187a14.459,14.459,0,0,0,3.768-.38ZM55.162,8.916A7.064,7.064,0,0,0,47.959,2H8.2A7.064,7.064,0,0,0,1,8.916V47.084A7.064,7.064,0,0,0,8.2,54H47.959a7.064,7.064,0,0,0,7.2-6.916ZM39.8,36.422a7.3,7.3,0,0,1-2.189,2.669,9.369,9.369,0,0,1-3.269,1.476,20.332,20.332,0,0,1-4.815.537H17.465V12.4H29.346a14.461,14.461,0,0,1,5.488.833,6.952,6.952,0,0,1,3.238,2.66,6.829,6.829,0,0,1,1.171,3.774A6.3,6.3,0,0,1,38.2,23.123a7.325,7.325,0,0,1-3.136,2.617,7.831,7.831,0,0,1,4.164,2.6,6.779,6.779,0,0,1,1.456,4.34,8.09,8.09,0,0,1-.886,3.743Z" transform="translate(472 2366)" fill="#5b4282"/></g></svg>