<svg xmlns="http://www.w3.org/2000/svg" width="48.63" height="65.856" viewBox="0 0 48.63 65.856"><g transform="translate(-19.516 -14.429)"><path d="M66.218,3.7H62.182l4.2,4.463v2.125H57.734V7.8h4.2l-4.2-4.463V1.207h8.484Zm-10.2,0H51.984l4.2,4.463v2.125H47.536V7.8h4.2l-4.2-4.463V1.207H56.02Zm-10.1.1H41.567V7.693h4.355v2.592H38.471V1.207h7.451V3.8Z" transform="translate(-7.594 70)" fill="#131313"/><path d="M23.942,74.534,19.516,25.893h48.63l-4.43,48.633L43.8,79.936Z" transform="translate(0 -11.464)" fill="#1572b6"/><path d="M64,79.25l16.091-4.372,3.786-41.559H64Z" transform="translate(-20.169 -14.912)" fill="#33a9dc"/><path d="M64,55.751h8.056l.557-6.109H64V43.677H79.266l-.146,1.6-1.5,16.439H64Z" transform="translate(-20.169 -19.722)" fill="#fff"/><path d="M52.992,89.472l-.027.007-6.78-1.794-.434-4.758h-6.11l.853,9.367,12.47,3.392.028-.008V89.472Z" transform="translate(-9.125 -37.95)" fill="#ebebeb"/><path d="M71.551,76.886l-.734,7.989-6.79,1.8v6.207l12.481-3.389L76.6,88.48,77.66,76.886H71.551Z" transform="translate(-20.182 -35.144)" fill="#fff"/><path d="M51.389,43.677v5.965H36.684L36.561,48.3l-.277-3.024-.146-1.6H51.389Zm-.021,12.075v5.966H44.673l-.122-1.341-.278-3.025-.146-1.6Z" transform="translate(-7.536 -19.722)" fill="#ebebeb"/></g></svg>