<svg xmlns="http://www.w3.org/2000/svg" width="51.551" height="71.158" viewBox="0 0 51.551 71.158"><g transform="translate(-896.529 -2379.001)"><path d="M-22.729-6.957v1.638h2.7v2.146h-2.7V0h-2.742V-9.1h5.707v2.146Zm6.841-1.295a1.161,1.161,0,0,1-.416.927A1.627,1.627,0,0,1-17.4-6.97a1.587,1.587,0,0,1-1.082-.368,1.164,1.164,0,0,1-.422-.914,1.127,1.127,0,0,1,.409-.9A1.641,1.641,0,0,1-17.4-9.5a1.656,1.656,0,0,1,1.095.346A1.12,1.12,0,0,1-15.888-8.252ZM-18.75,0V-6.5h2.7V0Zm8.828-4.183a2.1,2.1,0,0,0-.413-.127,2.088,2.088,0,0,0-.432-.057q-1.339,0-1.339,1.549V0h-2.7V-6.5h2.7v1.143h.025a2.03,2.03,0,0,1,.7-.936,1.81,1.81,0,0,1,1.066-.321.916.916,0,0,1,.387.076Zm3.045,1.7a.913.913,0,0,0,.482.657A2.175,2.175,0,0,0-5.3-1.587a4.5,4.5,0,0,0,1.79-.362V-.235A6.434,6.434,0,0,1-5.9.159a3.766,3.766,0,0,1-2.647-.87A3.089,3.089,0,0,1-9.492-3.1a3.948,3.948,0,0,1,.416-1.847A2.992,2.992,0,0,1-7.845-6.2a3.638,3.638,0,0,1,1.8-.454,3.541,3.541,0,0,1,1.727.394,2.622,2.622,0,0,1,1.089,1.1A3.544,3.544,0,0,1-2.859-3.5v1.016ZM-5.252-3.9q0-1.124-.806-1.124a.682.682,0,0,0-.565.308A1.536,1.536,0,0,0-6.89-3.9Zm10.593.451a4.757,4.757,0,0,1-.352,1.888,2.871,2.871,0,0,1-1,1.27A2.518,2.518,0,0,1,2.522.159,2.315,2.315,0,0,1,1.447-.073a1.938,1.938,0,0,1-.708-.6H.713V0h-2.7V-9.623h2.7v4.005H.739a2.227,2.227,0,0,1,.86-.762,2.576,2.576,0,0,1,1.2-.279,2.28,2.28,0,0,1,1.888.819A3.755,3.755,0,0,1,5.341-3.447ZM2.6-3.364a1.613,1.613,0,0,0-.251-.984.85.85,0,0,0-.72-.33.848.848,0,0,0-.689.346,1.4,1.4,0,0,0-.276.9v.394a1.447,1.447,0,0,0,.248.889.79.79,0,0,0,.667.33.854.854,0,0,0,.755-.4A2.058,2.058,0,0,0,2.6-3.364ZM9.9,0V-.99H9.871A2.126,2.126,0,0,1,7.891.159,1.9,1.9,0,0,1,6.45-.387a2.028,2.028,0,0,1-.521-1.46q0-1.917,2.355-2.222L9.9-4.278A.615.615,0,0,0,9.611-4.8,1.3,1.3,0,0,0,8.843-5a5.059,5.059,0,0,0-2.3.622V-6.138a6.164,6.164,0,0,1,1.32-.375,7.684,7.684,0,0,1,1.358-.146,3.411,3.411,0,0,1,2.4.708,3.155,3.155,0,0,1,.746,2.365V0ZM8.3-2.209a.6.6,0,0,0,.168.438.641.641,0,0,0,.479.171.852.852,0,0,0,.689-.317A1.23,1.23,0,0,0,9.9-2.729v-.248l-.914.127Q8.3-2.736,8.3-2.209Zm10.5.051A1.985,1.985,0,0,1,17.96-.448a3.953,3.953,0,0,1-2.345.606A8.155,8.155,0,0,1,14.532.07a6.686,6.686,0,0,1-1.051-.216v-1.9a5.173,5.173,0,0,0,2.006.533q.793,0,.793-.413a.326.326,0,0,0-.184-.282,6.507,6.507,0,0,0-.965-.371A2.725,2.725,0,0,1,13.875-3.3a1.721,1.721,0,0,1-.394-1.174,1.874,1.874,0,0,1,.8-1.6,3.767,3.767,0,0,1,2.257-.587,7.173,7.173,0,0,1,1.8.248v1.822a5.452,5.452,0,0,0-.876-.286,3.538,3.538,0,0,0-.8-.114.871.871,0,0,0-.425.089.273.273,0,0,0-.159.248.345.345,0,0,0,.171.3,3.032,3.032,0,0,0,.686.273,3.181,3.181,0,0,1,1.428.749A1.641,1.641,0,0,1,18.8-2.158Zm3.261-.324a.913.913,0,0,0,.482.657,2.175,2.175,0,0,0,1.092.238,4.5,4.5,0,0,0,1.79-.362V-.235A6.434,6.434,0,0,1,23.04.159a3.766,3.766,0,0,1-2.647-.87A3.089,3.089,0,0,1,19.447-3.1a3.948,3.948,0,0,1,.416-1.847A2.992,2.992,0,0,1,21.094-6.2a3.638,3.638,0,0,1,1.8-.454,3.541,3.541,0,0,1,1.727.394,2.622,2.622,0,0,1,1.089,1.1A3.544,3.544,0,0,1,26.08-3.5v1.016ZM23.687-3.9q0-1.124-.806-1.124a.682.682,0,0,0-.565.308,1.536,1.536,0,0,0-.267.816Z" transform="translate(922 2450)"/><g transform="translate(891.08 2377)"><path d="M8,46.121,30.786,8.576a1.343,1.343,0,0,1,2.235.026l7.885,13.859Z" transform="translate(0 1.884)" fill="#ff8f00"/><path d="M8,47.994,16.3,3.042a1.472,1.472,0,0,1,2.643-.375L34.923,29.592Z" transform="translate(0 0)" fill="#ffa000"/><path d="M8.008,44.524l.3-.206,26.219-18.85L27.131,13.012Z" transform="translate(0.004 3.462)" fill="#ff6f00"/><path d="M8,45.169l39.885-33.8a1.484,1.484,0,0,1,2.4.719l5.576,33.079L33.427,56.661a3.358,3.358,0,0,1-2.933,0Z" transform="translate(0 2.835)" fill="#ffc400"/></g></g></svg>