<svg xmlns="http://www.w3.org/2000/svg" width="92" height="92" viewBox="0 0 92 92"><path d="M42.9,2.359A46.694,46.694,0,0,0,2.361,43.637,47.886,47.886,0,0,0,31.386,93.456c1.383.475,2.766-.475,2.766-2.373V83.492A18.487,18.487,0,0,1,30,83.974a10.073,10.073,0,0,1-9.674-9.022,9.9,9.9,0,0,0-2.766-4.743c-1.383-.475-1.839-.475-1.839-.949,0-.949,1.383-.949,1.839-.949,2.766,0,5.069,3.312,5.988,4.743A8.387,8.387,0,0,0,30,77.8a8.983,8.983,0,0,0,4.145-.949,12.115,12.115,0,0,1,4.609-8.54c-10.6-2.366-18.428-8.54-18.428-18.98A22.73,22.73,0,0,1,25.846,35.1a18.077,18.077,0,0,1-.923-6.642,16.689,16.689,0,0,1,1.383-7.591,20.422,20.422,0,0,1,12.9,6.167,24.268,24.268,0,0,1,8.754-1.424,28.916,28.916,0,0,1,9.214,1.424,19.565,19.565,0,0,1,12.9-6.167A24.247,24.247,0,0,1,71,28.455a16.2,16.2,0,0,1-.923,6.642A21.714,21.714,0,0,1,75.591,49.33c0,10.439-7.831,16.606-18.428,18.98a14.832,14.832,0,0,1,4.609,10.914V91.557A2.523,2.523,0,0,0,65,93.931,47.666,47.666,0,0,0,94.023,49.808C94.045,21.339,70.548-.963,42.9,2.359Z" transform="translate(-2.023 -2.03)" fill="#fff"/></svg>