<svg xmlns="http://www.w3.org/2000/svg" width="45.094" height="64.971" viewBox="0 0 45.094 64.971"><g transform="translate(-19.811 -14.468)"><path d="M23.915,73.393l-4.1-47.25H64.905L60.8,73.385,42.331,78.64Z" transform="translate(0 -11.675)" fill="#e44d26"/><path d="M64,78.137,78.922,73.89l3.511-40.37H64Z" transform="translate(-21.642 -15.188)" fill="#f16529"/><path d="M50.413,56.313h-7.47l-.515-5.935h7.986V44.583H36.257l.135,1.555L37.78,62.107H50.413Zm0,15.049-.025.007L44.1,69.626,43.7,65H38.032l.791,9.1,11.564,3.3.026-.008Z" transform="translate(-8.055 -20.457)" fill="#ebebeb"/><path d="M28.034,1.627H30.9v2.91h2.625V1.627H36.4v8.811H33.527V7.487H30.9v2.95H28.034V1.627ZM40.169,4.549H37.643V1.627h7.922V4.549H43.038v5.889H40.169V4.549Zm6.653-2.922h2.991l1.84,3.1,1.838-3.1h2.993v8.811H53.626V6.071L51.653,9.2H51.6L49.629,6.071v4.367H46.821V1.627Zm11.091,0h2.87v5.9h4.034v2.913h-6.9V1.627Z" transform="translate(-4.027 69)"/><path d="M63.962,56.313v5.794h6.952l-.655,7.516-6.3,1.745V77.4L75.535,74.1l.085-.979,1.327-15.256.138-1.556H63.962Zm0-11.73v5.795H77.6l.113-1.3.258-2.937.135-1.555Z" transform="translate(-21.623 -20.457)" fill="#fff"/></g></svg>