<svg xmlns="http://www.w3.org/2000/svg" width="73.678" height="74.902" viewBox="0 0 73.678 74.902"><g transform="translate(-6.273 -1.634)"><path d="M25.85,13.172C21.158,19.66,21.742,28.1,25.327,35l.262.49.168.311.1.179.187.322c.111.189.225.376.342.564l.2.31q.194.3.4.6l.169.251c.187.268.378.536.575.8l.017.02.1.126c.17.226.346.45.524.671l.2.241c.159.192.32.383.484.574l.185.212c.22.249.445.5.675.742l.013.014.026.028c.224.235.453.466.686.7l.22.213c.18.174.363.346.548.516l.224.205c.247.224.5.443.75.657l.011.01.131.107q.336.281.682.554l.282.217c.188.144.377.287.568.427l.3.222q.316.224.638.44l.232.158.064.044c.2.135.412.265.619.394l.268.172c.319.193.643.386.969.571l.268.146c.241.133.482.265.727.392l.4.2.521.26.12.056.213.1c.272.125.548.249.825.368l.174.075q.477.2.962.386l.235.088c.3.112.6.22.908.324l.114.038c.334.113.673.217,1.013.319l.244.07a10.189,10.189,0,0,0,1.045.284C67.6,54.14,74.192,37.038,74.192,37.038c-5.535,6.94-15.36,8.77-24.668,6.732-.353-.077-.695-.183-1.039-.28l-.259-.076q-.5-.148-1-.313l-.137-.047c-.3-.1-.59-.206-.882-.315l-.248-.093c-.32-.122-.638-.249-.952-.381l-.19-.082c-.27-.117-.537-.236-.8-.359l-.232-.107c-.209-.1-.415-.2-.622-.3l-.414-.209c-.252-.129-.5-.264-.745-.4l-.251-.134q-.491-.279-.97-.572l-.262-.168c-.232-.144-.463-.29-.69-.442l-.223-.15q-.329-.223-.652-.453l-.289-.211c-.2-.146-.394-.292-.588-.443l-.262-.2q-.371-.293-.733-.6L37,37.365c-.261-.22-.518-.447-.771-.674l-.217-.2c-.188-.171-.373-.345-.554-.523l-.217-.209q-.347-.341-.68-.692l-.034-.035c-.235-.247-.465-.5-.689-.755l-.181-.206c-.168-.194-.334-.392-.5-.59l-.182-.218c-.2-.244-.386-.487-.573-.734C27.238,25.744,25.381,16.387,29.512,8.7m10.9-1c-3.392,4.7-3.209,10.989-.562,15.957a20.579,20.579,0,0,0,1.5,2.41,11.505,11.505,0,0,0,1.747,2.1c.244.259.5.512.761.76l.2.191c.253.236.511.469.777.7l.032.026.008.007c.295.249.6.488.908.723l.206.155c.31.228.626.453.95.668l.027.02.434.275.205.131c.232.143.466.282.7.415l.1.056c.205.114.414.225.622.335l.221.111.435.217.066.029c.3.141.6.278.909.407l.2.08c.246.1.495.2.745.29l.319.113c.227.081.454.155.684.229l.309.1a7.91,7.91,0,0,0,.988.275c17.517,2.792,21.561-10.187,21.561-10.187-3.645,5.053-10.705,7.464-18.238,5.582q-.5-.127-.992-.276l-.3-.093c-.233-.072-.465-.149-.694-.23l-.313-.112q-.377-.14-.747-.29l-.2-.082q-.464-.194-.914-.409l-.458-.224-.264-.131c-.2-.1-.389-.208-.58-.316l-.138-.076q-.356-.2-.7-.413l-.212-.136-.454-.29c-.323-.214-.638-.438-.947-.666l-.213-.162a20.346,20.346,0,0,1-7.154-9.812A14.719,14.719,0,0,1,43.186,3.938m9.475-.318a9.509,9.509,0,0,0-.809,9.479,13.67,13.67,0,0,0,7.962,7.161l.435.144.191.059a5.478,5.478,0,0,0,.624.173c9.672,1.8,12.3-4.776,12.994-5.745-2.3,3.184-6.16,3.949-10.9,2.842-.374-.087-.786-.217-1.146-.341a14.549,14.549,0,0,1-1.362-.544,14.273,14.273,0,0,1-2.387-1.4c-4.241-3.1-6.874-9-4.107-13.813" transform="translate(-5.866)" fill="#0868ac"/><path d="M44.617,94.281h-2.7a.352.352,0,0,0-.33.256L40.633,98.8l-.957,4.262a.35.35,0,0,1-.329.256H37.438c-1.888,0-1.67-1.257-1.283-2.979l.011-.052.042-.217.008-.041.086-.442.093-.473.1-.482.435-2.046.436-2.046a.209.209,0,0,0-.218-.257H34.379a.348.348,0,0,0-.328.257l-.6,2.717-.595,2.718v0l-.055.253c-.685,3.011-.5,5.883,3.221,5.974l.108,0h5.847a.35.35,0,0,0,.329-.256l1.261-5.7,1.261-5.705A.206.206,0,0,0,44.617,94.281Zm-28.88-.03H12.776a.356.356,0,0,0-.332.255L12.163,95.7l-.281,1.193a.2.2,0,0,0,.213.255h2.984a.352.352,0,0,0,.331-.256L15.68,95.7l.271-1.192A.205.205,0,0,0,15.737,94.251Zm-.859,3.712H11.893a.356.356,0,0,0-.332.255l-.419,1.787-.419,1.786-.117.512-.4,1.824-.4,1.825c-.031.141-.1.368-.144.5,0,0-.558,1.6-1.5,1.578l-.117,0-.811-.014h0a.354.354,0,0,0-.334.25l-.31,1.252-.309,1.252a.2.2,0,0,0,.208.258c.532.006,1.722.019,2.443.019,2.341,0,3.576-1.249,4.367-4.841l.926-4.123.869-3.867a.205.205,0,0,0-.215-.255ZM69.834,97,69.71,96.5l-.122-.5-.062-.254c-.243-.907-.954-1.43-2.5-1.43l-2.406,0-2.216,0H59.912a.35.35,0,0,0-.329.256l-.11.5-.13.592-.036.166-1.123,5.06-1.066,4.8a1.08,1.08,0,0,0-.024.384c.018.071.306.128.455.128H59.8a1.462,1.462,0,0,0,.421-.058c.082-.032.2-.315.232-.456l.4-1.9.4-1.9v0l.054-.254.485-2.186.428-1.931a.351.351,0,0,1,.329-.256l7.076,0A.2.2,0,0,0,69.834,97Zm9.11-4.446-.545,0H76.134a.584.584,0,0,0-.426.217L70.7,99.829c-.084.119-.181.1-.214-.038l-.369-1.556a.356.356,0,0,0-.333-.255H66.564a.189.189,0,0,0-.2.251l1.443,4.865a1.111,1.111,0,0,1,.007.506l-.629,2.354a.2.2,0,0,0,.2.254h3.182a.368.368,0,0,0,.34-.254l.629-2.354a1.523,1.523,0,0,1,.232-.464l8.131-10.386c.091-.115.041-.209-.108-.208ZM53.362,98.641v0a.324.324,0,0,1-.318.271H48.962c-.142,0-.213-.092-.192-.206l0-.009h0l0-.013.019-.067a2.559,2.559,0,0,1,2.676-1.652c1.681,0,2.009.789,1.895,1.678Zm-1.2-4.535c-5.24,0-6.482,3.061-7.179,6.151-.7,3.149-.637,6.093,4.786,6.093h.859l.651,0h.011c1.432-.006,2.868-.016,3.45-.02a.35.35,0,0,0,.325-.258l.22-1.032.043-.2.262-1.232a.208.208,0,0,0-.218-.257H50.5c-1.939,0-2.515-.5-2.3-1.954h7.8a.321.321,0,0,0,.284-.193l.019-.065h0c1.157-4.2.825-7.029-4.131-7.029ZM27.4,98.625l-.074.251h0l-.588,2.007-.588,2.006a.379.379,0,0,1-.347.252H22.686c-2.362,0-2.938-1.779-2.362-4.4.575-2.683,1.7-4.35,4.028-4.519,3.178-.231,3.814,1.92,3.046,4.4Zm2.137,4.363a32.725,32.725,0,0,0,1.8-5.413c.455-2.652-.925-6.5-6.256-6.5-5.3,0-7.6,3.673-8.481,7.667-.878,4.023.272,7.549,5.543,7.521l4.158-.015,3.886-.014a.374.374,0,0,0,.341-.254L31.2,103.5a.2.2,0,0,0-.2-.255l-.649,0-.649,0c-.127,0-.2-.08-.184-.185Zm26.241-2.3a.179.179,0,1,1-.179-.171A.176.176,0,0,1,55.775,100.691Z" transform="translate(0 -34.513)" fill="#131b28"/></g></svg>