<svg xmlns="http://www.w3.org/2000/svg" width="66" height="69" viewBox="0 0 66 69"><g transform="translate(-544 -2368)"><text transform="translate(577 2434)" font-size="13" font-family="SegoeUIBlack, Segoe UI" letter-spacing="-0.005em"><tspan x="-32.801" y="0">JavaScript</tspan></text><g transform="translate(548.592 2366.592)"><path d="M1.408,1.408H54V54.484H1.408Z" fill="#f0db4f"/><path d="M68.776,74.538c-.385-2.421-1.95-4.455-6.584-6.352-1.61-.747-3.4-1.281-3.94-2.513a2.763,2.763,0,0,1-.095-1.554c.345-1.408,2.01-1.846,3.33-1.443a3.676,3.676,0,0,1,2.14,2c2.27-1.483,2.265-1.473,3.85-2.493a9.923,9.923,0,0,0-1.27-1.715c-1.365-1.539-3.225-2.331-6.2-2.27l-1.549.2a6.744,6.744,0,0,0-2.48,12.113c2.985,2.261,7.369,2.775,7.929,4.889.545,2.588-1.885,3.426-4.3,3.128a5.642,5.642,0,0,1-3.84-2.946c-1.97,1.15-1.97,1.15-3.995,2.326a8.966,8.966,0,0,0,1.79,2.457c3.81,3.9,13.343,3.708,15.053-2.195A7.364,7.364,0,0,0,68.776,74.538Zm-19.7-16.024H44.159l-.02,12.835c0,2.73.14,5.232-.3,6-.72,1.509-2.585,1.322-3.435,1.029a4.243,4.243,0,0,1-1.815-1.9,2.5,2.5,0,0,0-.28-.454l-4,2.472a7.954,7.954,0,0,0,2.9,3.35,9.472,9.472,0,0,0,7.029.873,6.217,6.217,0,0,0,3.969-3.138c1.12-2.084.88-4.606.87-7.4C49.1,67.631,49.079,63.08,49.079,58.514Z" transform="translate(-19.079 -32.712)" fill="#323330"/></g></g></svg>