<svg xmlns="http://www.w3.org/2000/svg" width="71.947" height="66.159" viewBox="0 0 71.947 66.159"><g transform="translate(-539.982 -2368)"><path d="M-30.425-3.885q0,4.043-3.929,4.043a4.612,4.612,0,0,1-.762-.076,6.121,6.121,0,0,1-.9-.229V-2.679a2.977,2.977,0,0,0,.72.359,2.109,2.109,0,0,0,.657.136,1.329,1.329,0,0,0,1.1-.454,2.227,2.227,0,0,0,.365-1.406V-9.1h2.749Zm7.946,1.13a2.629,2.629,0,0,1-.486,1.581,2.878,2.878,0,0,1-1.362,1,5.988,5.988,0,0,1-2.107.33A6.884,6.884,0,0,1-29.05-.324V-2.818a5.166,5.166,0,0,0,1.263.676,3.716,3.716,0,0,0,1.289.257,1.272,1.272,0,0,0,.7-.162.53.53,0,0,0,.248-.473.641.641,0,0,0-.124-.39,1.215,1.215,0,0,0-.375-.314,6.976,6.976,0,0,0-.93-.4,2.878,2.878,0,0,1-2.2-2.729,2.55,2.55,0,0,1,1-2.111,4.23,4.23,0,0,1,2.691-.79q.476,0,.876.038t.727.1q.327.057.917.216v2.317a4.687,4.687,0,0,0-2.26-.628,1.4,1.4,0,0,0-.736.171.527.527,0,0,0-.279.47.589.589,0,0,0,.225.473,4.225,4.225,0,0,0,.943.486,5.227,5.227,0,0,1,2,1.25A2.385,2.385,0,0,1-22.48-2.755ZM-17.887,0V-9.1h2.742v6.957h3.136V0ZM-8.3-8.252a1.161,1.161,0,0,1-.416.927,1.627,1.627,0,0,1-1.095.355A1.587,1.587,0,0,1-10.9-7.338a1.164,1.164,0,0,1-.422-.914,1.127,1.127,0,0,1,.409-.9A1.641,1.641,0,0,1-9.814-9.5a1.656,1.656,0,0,1,1.095.346A1.12,1.12,0,0,1-8.3-8.252ZM-11.166,0V-6.5h2.7V0ZM.105-3.447A4.757,4.757,0,0,1-.247-1.558a2.871,2.871,0,0,1-1,1.27A2.518,2.518,0,0,1-2.713.159,2.315,2.315,0,0,1-3.789-.073a1.938,1.938,0,0,1-.708-.6h-.025V0h-2.7V-9.623h2.7v4.005H-4.5a2.227,2.227,0,0,1,.86-.762,2.576,2.576,0,0,1,1.2-.279A2.28,2.28,0,0,1-.551-5.84,3.755,3.755,0,0,1,.105-3.447Zm-2.742.083a1.613,1.613,0,0,0-.251-.984.85.85,0,0,0-.72-.33.848.848,0,0,0-.689.346,1.4,1.4,0,0,0-.276.9v.394a1.447,1.447,0,0,0,.248.889.79.79,0,0,0,.667.33.854.854,0,0,0,.755-.4A2.058,2.058,0,0,0-2.637-3.364Zm8.581-.819a2.1,2.1,0,0,0-.413-.127A2.088,2.088,0,0,0,5.1-4.367q-1.339,0-1.339,1.549V0h-2.7V-6.5h2.7v1.143h.025a2.03,2.03,0,0,1,.7-.936,1.81,1.81,0,0,1,1.066-.321.916.916,0,0,1,.387.076ZM10.265,0V-.99H10.24A2.126,2.126,0,0,1,8.259.159,1.9,1.9,0,0,1,6.818-.387,2.028,2.028,0,0,1,6.3-1.847q0-1.917,2.355-2.222l1.612-.209A.615.615,0,0,0,9.979-4.8,1.3,1.3,0,0,0,9.211-5a5.059,5.059,0,0,0-2.3.622V-6.138a6.164,6.164,0,0,1,1.32-.375,7.684,7.684,0,0,1,1.358-.146,3.411,3.411,0,0,1,2.4.708,3.155,3.155,0,0,1,.746,2.365V0Zm-1.6-2.209a.6.6,0,0,0,.168.438.641.641,0,0,0,.479.171A.852.852,0,0,0,10-1.917a1.23,1.23,0,0,0,.263-.812v-.248l-.914.127Q8.665-2.736,8.665-2.209Zm10.11-1.974a2.1,2.1,0,0,0-.413-.127,2.088,2.088,0,0,0-.432-.057q-1.339,0-1.339,1.549V0h-2.7V-6.5h2.7v1.143h.025a2.03,2.03,0,0,1,.7-.936,1.81,1.81,0,0,1,1.066-.321.916.916,0,0,1,.387.076Zm3.579-4.069a1.161,1.161,0,0,1-.416.927,1.627,1.627,0,0,1-1.095.355,1.587,1.587,0,0,1-1.082-.368,1.164,1.164,0,0,1-.422-.914,1.127,1.127,0,0,1,.409-.9A1.641,1.641,0,0,1,20.844-9.5a1.656,1.656,0,0,1,1.095.346A1.12,1.12,0,0,1,22.354-8.252ZM19.491,0V-6.5h2.7V0Zm6.27-2.482a.913.913,0,0,0,.482.657,2.175,2.175,0,0,0,1.092.238,4.5,4.5,0,0,0,1.79-.362V-.235a6.434,6.434,0,0,1-2.387.394,3.766,3.766,0,0,1-2.647-.87A3.089,3.089,0,0,1,23.146-3.1a3.948,3.948,0,0,1,.416-1.847A2.992,2.992,0,0,1,24.793-6.2a3.638,3.638,0,0,1,1.8-.454,3.541,3.541,0,0,1,1.727.394,2.622,2.622,0,0,1,1.089,1.1A3.544,3.544,0,0,1,29.78-3.5v1.016ZM27.386-3.9q0-1.124-.806-1.124a.682.682,0,0,0-.565.308,1.536,1.536,0,0,0-.267.816Zm8.542,1.739a1.985,1.985,0,0,1-.841,1.711,3.953,3.953,0,0,1-2.345.606A8.155,8.155,0,0,1,31.66.07,6.686,6.686,0,0,1,30.61-.146v-1.9a5.173,5.173,0,0,0,2.006.533q.793,0,.793-.413a.326.326,0,0,0-.184-.282,6.507,6.507,0,0,0-.965-.371A2.725,2.725,0,0,1,31-3.3a1.721,1.721,0,0,1-.394-1.174,1.874,1.874,0,0,1,.8-1.6,3.767,3.767,0,0,1,2.257-.587,7.173,7.173,0,0,1,1.8.248v1.822a5.452,5.452,0,0,0-.876-.286,3.538,3.538,0,0,0-.8-.114.871.871,0,0,0-.425.089.273.273,0,0,0-.159.248.345.345,0,0,0,.171.3,3.032,3.032,0,0,0,.686.273,3.181,3.181,0,0,1,1.428.749A1.641,1.641,0,0,1,35.929-2.158Z" transform="translate(576 2434)"/><g transform="translate(548.592 2366.592)"><path d="M1.408,1.408H54V54.484H1.408Z" fill="#f0ab4f"/><path d="M68.776,74.538c-.385-2.421-1.95-4.455-6.584-6.352-1.61-.747-3.4-1.281-3.94-2.513a2.763,2.763,0,0,1-.095-1.554c.345-1.408,2.01-1.846,3.33-1.443a3.676,3.676,0,0,1,2.14,2c2.27-1.483,2.265-1.473,3.85-2.493a9.923,9.923,0,0,0-1.27-1.715c-1.365-1.539-3.225-2.331-6.2-2.27l-1.549.2a6.744,6.744,0,0,0-2.48,12.113c2.985,2.261,7.369,2.775,7.929,4.889.545,2.588-1.885,3.426-4.3,3.128a5.642,5.642,0,0,1-3.84-2.946c-1.97,1.15-1.97,1.15-3.995,2.326a8.966,8.966,0,0,0,1.79,2.457c3.81,3.9,13.343,3.708,15.053-2.195A7.364,7.364,0,0,0,68.776,74.538Zm-19.7-16.024H44.159l-.02,12.835c0,2.73.14,5.232-.3,6-.72,1.509-2.585,1.322-3.435,1.029a4.243,4.243,0,0,1-1.815-1.9,2.5,2.5,0,0,0-.28-.454l-4,2.472a7.954,7.954,0,0,0,2.9,3.35,9.472,9.472,0,0,0,7.029.873,6.217,6.217,0,0,0,3.969-3.138c1.12-2.084.88-4.606.87-7.4C49.1,67.631,49.079,63.08,49.079,58.514Z" transform="translate(-19.079 -32.712)" fill="#323330"/></g></g></svg>