<svg xmlns="http://www.w3.org/2000/svg" width="57.552" height="69.159" viewBox="0 0 57.552 69.159"><g transform="translate(-683 -1025)"><g transform="translate(681.6 1016.9)"><ellipse cx="5.24" cy="4.94" rx="5.24" ry="4.94" transform="translate(24.936 27.385)" fill="#61dafb"/><path d="M50.08,24.178c-1.011-.347-2.069-.693-3.172-1,.276-1.04.506-2.08.69-3.077.965-5.721-.092-9.751-3.034-11.311A5.986,5.986,0,0,0,41.622,8.1c-3.218,0-7.309,2.254-11.446,6.024C26.039,10.354,21.948,8.1,18.73,8.1a5.986,5.986,0,0,0-2.942.693c-2.942,1.6-4,5.634-3.034,11.311.184,1,.414,2.037.69,3.077-1.1.3-2.16.607-3.172,1C4.526,26.258,1.4,29.119,1.4,32.326s3.172,6.067,8.872,8.147c1.011.347,2.069.693,3.172,1-.276,1.04-.506,2.08-.69,3.077-.965,5.721.092,9.751,3.034,11.311a5.986,5.986,0,0,0,2.942.693c3.264,0,7.355-2.254,11.446-6.024,4.137,3.77,8.228,6.024,11.446,6.024a5.986,5.986,0,0,0,2.942-.693c2.942-1.6,4-5.634,3.034-11.311-.184-1-.414-2.037-.69-3.077,1.1-.3,2.16-.607,3.172-1,5.746-2.08,8.872-4.94,8.872-8.147S55.826,26.258,50.08,24.178Zm-6.8-13.218c1.885,1.04,2.528,4.247,1.747,8.8a24.8,24.8,0,0,1-.644,2.86A57.7,57.7,0,0,0,36.8,21.535,63.326,63.326,0,0,0,32.015,15.9c3.4-3.164,6.849-5.33,9.653-5.33a3.253,3.253,0,0,1,1.609.39Zm-5.148,25.7c-.827,1.387-1.793,2.774-2.8,4.16-1.7.13-3.4.173-5.148.173-1.793,0-3.494-.043-5.148-.173q-1.517-2.08-2.758-4.16c-.873-1.43-1.7-2.9-2.436-4.334.735-1.43,1.563-2.9,2.436-4.334.827-1.387,1.793-2.774,2.8-4.16,1.7-.13,3.4-.173,5.148-.173,1.793,0,3.494.043,5.148.173q1.517,2.08,2.758,4.16c.873,1.43,1.7,2.9,2.436,4.334C39.783,33.756,39,35.186,38.128,36.659Zm3.815-1.43c.69,1.517,1.241,2.99,1.747,4.464-1.563.347-3.218.607-4.965.823.552-.823,1.149-1.69,1.655-2.6C40.932,37.006,41.438,36.1,41.944,35.229ZM30.176,46.974c-1.1-1.127-2.16-2.34-3.172-3.6,1.057.043,2.115.087,3.172.087s2.115-.043,3.172-.087C32.336,44.633,31.279,45.847,30.176,46.974Zm-8.55-6.5c-1.747-.217-3.4-.477-4.965-.823.506-1.43,1.057-2.947,1.747-4.464.506.867,1.011,1.777,1.563,2.644.552.953,1.1,1.777,1.655,2.644ZM18.408,29.422c-.69-1.517-1.241-2.99-1.747-4.464,1.563-.347,3.218-.607,4.965-.823-.552.823-1.149,1.69-1.655,2.6C19.419,27.645,18.914,28.555,18.408,29.422ZM30.176,17.678c1.1,1.127,2.16,2.34,3.172,3.6-1.057-.043-2.115-.087-3.172-.087s-2.115.043-3.172.087c1.011-1.257,2.069-2.47,3.172-3.6Zm10.2,9.1-1.655-2.6c1.747.217,3.4.477,4.965.823-.506,1.43-1.057,2.947-1.747,4.464C41.438,28.555,40.932,27.645,40.381,26.778ZM15.328,19.758c-.781-4.55-.138-7.757,1.747-8.8a3.253,3.253,0,0,1,1.609-.39c2.758,0,6.206,2.124,9.653,5.33a57.7,57.7,0,0,0-4.781,5.634,66.034,66.034,0,0,0-7.585,1.083C15.7,21.621,15.512,20.668,15.328,19.758ZM3.974,32.326c0-2.037,2.62-4.2,7.217-5.807a28.758,28.758,0,0,1,2.942-.91,61,61,0,0,0,2.758,6.761,52.75,52.75,0,0,0-2.758,6.717C7.79,37.353,3.974,34.752,3.974,32.326Zm13.1,21.365c-1.885-1.04-2.528-4.247-1.747-8.8a24.8,24.8,0,0,1,.644-2.86,57.7,57.7,0,0,0,7.585,1.083,63.326,63.326,0,0,0,4.781,5.634c-3.4,3.164-6.849,5.33-9.653,5.33A3.253,3.253,0,0,1,17.075,53.691Zm27.948-8.8c.781,4.55.138,7.757-1.747,8.8a3.253,3.253,0,0,1-1.609.39c-2.758,0-6.206-2.124-9.653-5.33A57.7,57.7,0,0,0,36.8,43.117a66.033,66.033,0,0,0,7.585-1.083C44.656,43.03,44.84,43.983,45.024,44.893Zm4.137-6.761a28.758,28.758,0,0,1-2.942.91,61,61,0,0,0-2.758-6.761,52.748,52.748,0,0,0,2.758-6.717C52.562,27.3,56.378,29.9,56.378,32.326,56.378,34.362,53.711,36.529,49.161,38.133Z" transform="translate(0)" fill="#61dafb"/></g><path d="M-20.072,0l-.679-1.961a2.439,2.439,0,0,0-.511-.908.933.933,0,0,0-.682-.33h-.108V0h-2.742V-9.1h3.644a5.052,5.052,0,0,1,2.822.625A2.124,2.124,0,0,1-17.419-6.6a2.373,2.373,0,0,1-.53,1.574,3.021,3.021,0,0,1-1.577.92v.025a2.2,2.2,0,0,1,.962.578,3.573,3.573,0,0,1,.689,1.187l.9,2.317Zm-.26-6.214a.953.953,0,0,0-.279-.724,1.233,1.233,0,0,0-.876-.267h-.565v2.082h.5a1.257,1.257,0,0,0,.889-.311A1.019,1.019,0,0,0-20.333-6.214Zm6.422,3.732a.913.913,0,0,0,.482.657,2.175,2.175,0,0,0,1.092.238,4.5,4.5,0,0,0,1.79-.362V-.235a6.434,6.434,0,0,1-2.387.394,3.766,3.766,0,0,1-2.647-.87A3.089,3.089,0,0,1-16.525-3.1a3.948,3.948,0,0,1,.416-1.847A2.992,2.992,0,0,1-14.878-6.2a3.638,3.638,0,0,1,1.8-.454,3.541,3.541,0,0,1,1.727.394,2.622,2.622,0,0,1,1.089,1.1A3.544,3.544,0,0,1-9.892-3.5v1.016ZM-12.285-3.9q0-1.124-.806-1.124a.682.682,0,0,0-.565.308,1.536,1.536,0,0,0-.267.816ZM-5.419,0V-.99h-.025A2.126,2.126,0,0,1-7.424.159,1.9,1.9,0,0,1-8.865-.387a2.028,2.028,0,0,1-.521-1.46q0-1.917,2.355-2.222l1.612-.209A.615.615,0,0,0-5.7-4.8,1.3,1.3,0,0,0-6.472-5a5.059,5.059,0,0,0-2.3.622V-6.138a6.164,6.164,0,0,1,1.32-.375A7.684,7.684,0,0,1-6.1-6.659a3.411,3.411,0,0,1,2.4.708,3.155,3.155,0,0,1,.746,2.365V0Zm-1.6-2.209a.6.6,0,0,0,.168.438.641.641,0,0,0,.479.171.852.852,0,0,0,.689-.317,1.23,1.23,0,0,0,.263-.812v-.248l-.914.127Q-7.018-2.736-7.018-2.209ZM3.562-.184a2.549,2.549,0,0,1-.819.248,7.741,7.741,0,0,1-1.289.1A3.964,3.964,0,0,1-.383-.257,3.034,3.034,0,0,1-1.637-1.422,3.234,3.234,0,0,1-2.081-3.1a3.684,3.684,0,0,1,.473-1.914A3.083,3.083,0,0,1-.259-6.237a4.627,4.627,0,0,1,2.031-.422,7.106,7.106,0,0,1,1.139.083,1.741,1.741,0,0,1,.651.19v2.107a1.878,1.878,0,0,0-.584-.279,2.346,2.346,0,0,0-.7-.121,1.716,1.716,0,0,0-1.2.378A1.374,1.374,0,0,0,.661-3.237a1.349,1.349,0,0,0,.4,1.044,1.572,1.572,0,0,0,1.108.371,2.759,2.759,0,0,0,1.39-.362Zm5.591.1a2.634,2.634,0,0,1-.6.168A5.513,5.513,0,0,1,7.54.159,2.425,2.425,0,0,1,5.772-.463a2.361,2.361,0,0,1-.638-1.771V-4.627H4.113V-6.5H5.134V-7.776L7.8-8.512V-6.5H9.153v1.873H7.8v1.949q0,.857.679.857a1.842,1.842,0,0,0,.673-.14Zm9.531-3.8q0,4.043-3.929,4.043a4.612,4.612,0,0,1-.762-.076,6.121,6.121,0,0,1-.9-.229V-2.679a2.977,2.977,0,0,0,.72.359,2.109,2.109,0,0,0,.657.136,1.329,1.329,0,0,0,1.1-.454,2.227,2.227,0,0,0,.365-1.406V-9.1h2.749Zm6.657,1.727A1.985,1.985,0,0,1,24.5-.448a3.953,3.953,0,0,1-2.345.606A8.155,8.155,0,0,1,21.072.07a6.686,6.686,0,0,1-1.051-.216v-1.9a5.173,5.173,0,0,0,2.006.533q.793,0,.793-.413a.326.326,0,0,0-.184-.282,6.507,6.507,0,0,0-.965-.371A2.725,2.725,0,0,1,20.415-3.3a1.721,1.721,0,0,1-.394-1.174,1.874,1.874,0,0,1,.8-1.6,3.767,3.767,0,0,1,2.257-.587,7.173,7.173,0,0,1,1.8.248v1.822a5.452,5.452,0,0,0-.876-.286,3.538,3.538,0,0,0-.8-.114.871.871,0,0,0-.425.089.273.273,0,0,0-.159.248.345.345,0,0,0,.171.3,3.032,3.032,0,0,0,.686.273,3.181,3.181,0,0,1,1.428.749A1.641,1.641,0,0,1,25.341-2.158Z" transform="translate(712 1094)"/></g></svg>