<svg xmlns="http://www.w3.org/2000/svg" width="81.009" height="67.159" viewBox="0 0 81.009 67.159"><g transform="translate(-671 -934)"><path d="M1.219,37.862a2.511,2.511,0,0,0,.208.862,10.254,10.254,0,0,0,2.78,4.127,31.9,31.9,0,0,0,6.164,4.466c1.928,1.144,3.9,2.263,5.831,3.4.332.2.647.419,1.007.659-.31.139-.568.261-.837.373A47.2,47.2,0,0,0,9.1,55.471a13.846,13.846,0,0,0-3.618,3.023c-1.5,1.956-2.031,4.041-.913,6.266a3.893,3.893,0,0,0,1.527,1.627,2.459,2.459,0,0,0,.75.32c.683.133,1.378.22,2.069.324h1.957a13.856,13.856,0,0,0,5.914-1.786,10.99,10.99,0,0,0,5.462-6.44,9.464,9.464,0,0,0-.081-5.942,5.542,5.542,0,0,0-.228-.54c-.084-.177-.183-.35-.3-.571l4.436-2.107.066.047c-.081.218-.166.435-.239.655a12.428,12.428,0,0,0-.752,4.858,8.3,8.3,0,0,0,1.975,4.873,3.257,3.257,0,0,0,4.48.04,8.5,8.5,0,0,0,1.025-1.339c.723-1.233,1.393-2.489,2.084-3.735l.121-.228c-.05.59-.108,1.109-.134,1.628a5.2,5.2,0,0,0,.352,2.387,1.909,1.909,0,0,0,1.69,1.239,2.4,2.4,0,0,0,1.585-.477,5.955,5.955,0,0,0,1.736-1.7c1.227-1.86,2.486-3.709,3.6-5.616,1.2-2.062,2.254-4.185,3.371-6.283l.185-.372A25.2,25.2,0,0,0,48,48.1,21.608,21.608,0,0,0,49.414,50.8a.706.706,0,0,1-.126,1.027c-1.456,1.449-2.886,2.916-4.318,4.381a10.2,10.2,0,0,0-.9,1.006,1.761,1.761,0,0,0-.31.727.956.956,0,0,0,.892,1.05,7.518,7.518,0,0,0,1.747.1,11.6,11.6,0,0,0,5.417-1.682,4.312,4.312,0,0,0,2.242-5.062,10.312,10.312,0,0,0-.611-1.638.52.52,0,0,1,.079-.638,51.06,51.06,0,0,0,4.4-6.164,1.265,1.265,0,0,1,.2-.257,14.285,14.285,0,0,0,2.225,5.217c-.588.468-1.171.893-1.7,1.361a9.36,9.36,0,0,0-2.692,3.514,3.49,3.49,0,0,0-.3,1.814,1.827,1.827,0,0,0,2.286,1.387,10.894,10.894,0,0,0,6.2-3.157,3.569,3.569,0,0,0,.71-3.79c-.121-.367-.265-.727-.42-1.148.614-.157,1.212-.346,1.83-.462a19.479,19.479,0,0,1,9.486.458,6.921,6.921,0,0,1,4.133,2.968c1.058,1.8.473,3.509-1.582,4.647a3.633,3.633,0,0,0-.57.322.411.411,0,0,0-.132.357c.014.066.223.148.344.147a3.525,3.525,0,0,0,1.749-.6,4.5,4.5,0,0,0,2.486-3.1l.041-.1-.05-.868c-.02-.05.015-.1.01-.137a6.733,6.733,0,0,0-3.363-4.629,14.042,14.042,0,0,0-7.258-2.018,19.57,19.57,0,0,0-6.3.8c-.579.173-1.152.378-1.734.572-.078-.117-.162-.229-.231-.344a8.815,8.815,0,0,1-1.481-3.134,5.814,5.814,0,0,1-.016-2.458c.228-.783.525-1.552.8-2.324.144-.4.043-.62-.417-.8a2.124,2.124,0,0,0-.507-.137,9.4,9.4,0,0,0-3.336.2.887.887,0,0,0-.754.626c-.049.2-.149.4-.219.6a13.153,13.153,0,0,1-.95,2.475c-1.158,1.99-2.479,3.9-3.831,5.806-.146.205-.3.407-.485.655a7.759,7.759,0,0,1-1.135-2.42,6.161,6.161,0,0,1-.016-2.919c.219-.722.5-1.432.768-2.145.125-.339.067-.517-.3-.7a2.03,2.03,0,0,0-.612-.2,9.03,9.03,0,0,0-3.454.233.849.849,0,0,0-.641.579,19.685,19.685,0,0,1-1.025,2.619c-1.79,3.389-3.631,6.76-5.471,10.13-.384.7-.834,1.383-1.267,2.068a4.886,4.886,0,0,1-.406.49c-.11-.107-.152-.181-.152-.254a5.8,5.8,0,0,1,.041-1.3c.3-1.267.651-2.527,1.018-3.782.3-1.037.656-2.064.992-3.094a.839.839,0,0,0-.185-.957,2.01,2.01,0,0,0-2.181-.218l-.276.129.054-.368a4.757,4.757,0,0,0-.1-2.35,2.236,2.236,0,0,0-2.378-1.493,6.07,6.07,0,0,0-1.686.265,12.653,12.653,0,0,0-5.346,3.5,1.625,1.625,0,0,1-.488.348c-1.867.855-3.739,1.7-5.611,2.546l-2.083.943c-.559-.44-1.067-.9-1.643-1.284-1.759-1.185-3.547-2.341-5.319-3.512a19.6,19.6,0,0,1-4.256-3.5A5.619,5.619,0,0,1,7.461,38.34a6.983,6.983,0,0,1,1.479-4.455,18.834,18.834,0,0,1,4.911-4.437,47.241,47.241,0,0,1,6.457-3.537,54.413,54.413,0,0,1,9.9-3.609,32.838,32.838,0,0,1,10.946-1.028,13.081,13.081,0,0,1,4.211,1.01,3.959,3.959,0,0,1,2.212,1.98,4.129,4.129,0,0,1,.1,2.773,10.326,10.326,0,0,1-3.352,4.822A23.7,23.7,0,0,1,35.073,36.7a30.17,30.17,0,0,1-6.3,1.11,14.216,14.216,0,0,1-5.152-.513,6.9,6.9,0,0,1-2.838-1.591.469.469,0,0,0-.572-.153.373.373,0,0,0-.212.522,4.664,4.664,0,0,0,.492.979,6.4,6.4,0,0,0,2.247,1.757,12.805,12.805,0,0,0,5.588,1.266,33.714,33.714,0,0,0,8.81-.927,22.812,22.812,0,0,0,10.571-5.266c2.391-2.2,4.1-4.684,4.465-7.682a6.31,6.31,0,0,0-.841-4.233,8.693,8.693,0,0,0-4.042-3.263A20.016,20.016,0,0,0,39.33,17H36.549a34.04,34.04,0,0,0-9.77,1.744c-2.391.719-4.736,1.567-7.012,2.506A46.2,46.2,0,0,0,6.4,29.153,16.445,16.445,0,0,0,1.992,34.9a18.837,18.837,0,0,0-.717,2M19.237,56.086a8.1,8.1,0,0,1-3.65,5.862,9.069,9.069,0,0,1-4.175,1.721,3.678,3.678,0,0,1-1.738-.1,1.433,1.433,0,0,1-1-1.5,4.759,4.759,0,0,1,.981-2.763,10.872,10.872,0,0,1,3.059-2.774A48.51,48.51,0,0,1,18.7,53.2l.157-.053a7.238,7.238,0,0,1,.385,2.934ZM35.469,45.761a15.3,15.3,0,0,1-.61,2.253,59.737,59.737,0,0,1-3.408,7.445,12.467,12.467,0,0,1-.886,1.288.97.97,0,0,1-.183.178c-.373.3-.727.288-.915-.11A7.261,7.261,0,0,1,29,55.368a6.357,6.357,0,0,1-.084-1.011,11.15,11.15,0,0,1,2.411-6.6,6.739,6.739,0,0,1,2.321-2.16,4.515,4.515,0,0,1,1.029-.376c.548-.127.885.082.794.536ZM46.544,57.412l3.98-3.838C50.69,55,47.756,57.845,46.544,57.412ZM59.256,54.83c-.281.133-.588.229-.876.352-.264.113-.351,0-.359-.189a1.064,1.064,0,0,1,.06-.384,8.213,8.213,0,0,1,3-3.989l.1-.044a3.271,3.271,0,0,1-1.927,4.253Z" transform="translate(669.781 917)" fill="#cb6699" fill-rule="evenodd"/><path d="M-6.326-2.755a2.629,2.629,0,0,1-.486,1.581,2.878,2.878,0,0,1-1.362,1,5.988,5.988,0,0,1-2.107.33A6.884,6.884,0,0,1-12.9-.324V-2.818a5.166,5.166,0,0,0,1.263.676,3.716,3.716,0,0,0,1.289.257,1.272,1.272,0,0,0,.7-.162A.53.53,0,0,0-9.4-2.52a.641.641,0,0,0-.124-.39A1.215,1.215,0,0,0-9.9-3.225a6.976,6.976,0,0,0-.93-.4,2.878,2.878,0,0,1-2.2-2.729,2.55,2.55,0,0,1,1-2.111,4.23,4.23,0,0,1,2.691-.79q.476,0,.876.038t.727.1q.327.057.917.216v2.317a4.687,4.687,0,0,0-2.26-.628,1.4,1.4,0,0,0-.736.171.527.527,0,0,0-.279.47.589.589,0,0,0,.225.473,4.225,4.225,0,0,0,.943.486,5.227,5.227,0,0,1,2,1.25A2.385,2.385,0,0,1-6.326-2.755ZM-1.923,0V-.99h-.025A2.126,2.126,0,0,1-3.928.159,1.9,1.9,0,0,1-5.369-.387a2.028,2.028,0,0,1-.521-1.46q0-1.917,2.355-2.222l1.612-.209A.615.615,0,0,0-2.208-4.8,1.3,1.3,0,0,0-2.976-5a5.059,5.059,0,0,0-2.3.622V-6.138a6.164,6.164,0,0,1,1.32-.375A7.684,7.684,0,0,1-2.6-6.659a3.411,3.411,0,0,1,2.4.708A3.155,3.155,0,0,1,.547-3.586V0Zm-1.6-2.209a.6.6,0,0,0,.168.438.641.641,0,0,0,.479.171.852.852,0,0,0,.689-.317,1.23,1.23,0,0,0,.263-.812v-.248l-.914.127Q-3.522-2.736-3.522-2.209Zm10.5.051A1.985,1.985,0,0,1,6.141-.448,3.953,3.953,0,0,1,3.8.159,8.155,8.155,0,0,1,2.713.07,6.686,6.686,0,0,1,1.662-.146v-1.9a5.173,5.173,0,0,0,2.006.533q.793,0,.793-.413a.326.326,0,0,0-.184-.282,6.507,6.507,0,0,0-.965-.371A2.725,2.725,0,0,1,2.056-3.3a1.721,1.721,0,0,1-.394-1.174,1.874,1.874,0,0,1,.8-1.6,3.767,3.767,0,0,1,2.257-.587,7.173,7.173,0,0,1,1.8.248v1.822a5.452,5.452,0,0,0-.876-.286,3.538,3.538,0,0,0-.8-.114.871.871,0,0,0-.425.089.273.273,0,0,0-.159.248.345.345,0,0,0,.171.3,3.032,3.032,0,0,0,.686.273,3.181,3.181,0,0,1,1.428.749A1.641,1.641,0,0,1,6.982-2.158Zm6.213,0a1.985,1.985,0,0,1-.841,1.711,3.953,3.953,0,0,1-2.345.606A8.155,8.155,0,0,1,8.926.07,6.686,6.686,0,0,1,7.875-.146v-1.9a5.173,5.173,0,0,0,2.006.533q.793,0,.793-.413a.326.326,0,0,0-.184-.282,6.507,6.507,0,0,0-.965-.371A2.725,2.725,0,0,1,8.269-3.3a1.721,1.721,0,0,1-.394-1.174,1.874,1.874,0,0,1,.8-1.6,3.767,3.767,0,0,1,2.257-.587,7.173,7.173,0,0,1,1.8.248v1.822a5.452,5.452,0,0,0-.876-.286,3.538,3.538,0,0,0-.8-.114.871.871,0,0,0-.425.089.273.273,0,0,0-.159.248.345.345,0,0,0,.171.3,3.032,3.032,0,0,0,.686.273,3.181,3.181,0,0,1,1.428.749A1.641,1.641,0,0,1,13.194-2.158Z" transform="translate(705 1001)"/></g></svg>