<svg xmlns="http://www.w3.org/2000/svg" width="97.221" height="71.612" viewBox="0 0 97.221 71.612"><g transform="translate(-754.278 -1023)"><path d="M26.923,51.6a25,25,0,0,0,.567-50c-13.947-.248-25.6,11.033-25.6,24.714A25.014,25.014,0,0,0,26.923,51.6ZM26.882,2.817A23.853,23.853,0,0,1,50.675,27c0,12.71-10.837,23.343-23.783,23.346a23.765,23.765,0,1,1-.01-47.531Zm-10,12.544c.217.719-.39.97-1.034,1.02l-2.143.163c2.6,7.717,5.158,15.32,7.778,23.1a3.922,3.922,0,0,0,.3-.491c1.438-4.286,2.885-8.569,4.287-12.867A2.212,2.212,0,0,0,26,24.973c-.742-2.134-1.63-4.222-2.281-6.383-.445-1.479-1.035-2.436-2.788-2.264-.3.029-.663-.611-1-.942.4-.241.806-.684,1.214-.69q5.356-.081,10.713,0c.41.007.811.461,1.216.708-.354.323-.66.806-1.074.931a11.444,11.444,0,0,1-2.2.233l7.788,23.094c1.18-3.906,2.277-7.493,3.345-11.089A10.8,10.8,0,0,0,39.6,19.538a12.706,12.706,0,0,1-1.447-2.6,7.45,7.45,0,0,1-.433-3.314c.3-1.793,1.68-2.683,3.547-2.854-10.22-9.455-26.279-6.07-32.2,4.2,2.278-.1,4.453-.242,6.63-.272a1.488,1.488,0,0,1,1.19.663Zm4.072,31.283a3.675,3.675,0,0,0-.088.522,21.846,21.846,0,0,0,13.145-.355l-6.754-18.44C25.1,34.636,23.027,40.639,20.958,46.645Zm-3.4-.834L7.38,17.987C2.789,26.925,6.281,40.563,17.555,45.811ZM48.315,27.932c.323-4.226-1.14-10.078-2.4-10.883a26.306,26.306,0,0,1-.49,4.86c-1.053,3.713-2.341,7.362-3.582,11.021-1.348,3.977-2.75,7.936-4.128,11.9a20.477,20.477,0,0,0,10.6-16.9Z" transform="translate(765.115 1021.397)" fill="#494949" fill-rule="evenodd"/><path d="M-37.588,0H-40.5l-1.263-5.186a8.995,8.995,0,0,1-.127-1.1h-.025a8.741,8.741,0,0,1-.184,1.1L-43.466,0h-3.085l-2.171-9.1h3.009l.762,5.357q.019.1.057.59l.038.527h.038q.013-.165.076-.562a5.318,5.318,0,0,1,.121-.594l1.4-5.319h2.99l1.168,5.4.083.54.063.527h.025l.019-.222.083-.882.793-5.357h2.7Zm10.244-3.364a3.385,3.385,0,0,1-.993,2.583,3.882,3.882,0,0,1-2.777.939,3.9,3.9,0,0,1-2.758-.917,3.283,3.283,0,0,1-.987-2.53,3.389,3.389,0,0,1,.463-1.8,3.013,3.013,0,0,1,1.32-1.168A4.558,4.558,0,0,1-31.1-6.659a4.415,4.415,0,0,1,2,.425,3.1,3.1,0,0,1,1.3,1.181A3.215,3.215,0,0,1-27.344-3.364Zm-2.742.013q0-1.327-1.016-1.327t-1.016,1.39q0,1.466,1.028,1.466Q-30.087-1.822-30.087-3.352Zm8.574-.832a2.1,2.1,0,0,0-.413-.127,2.088,2.088,0,0,0-.432-.057q-1.339,0-1.339,1.549V0h-2.7V-6.5h2.7v1.143h.025a2.03,2.03,0,0,1,.7-.936A1.81,1.81,0,0,1-21.9-6.614a.916.916,0,0,1,.387.076ZM-16.455,0V-.755h-.025a2.231,2.231,0,0,1-.844.67,2.406,2.406,0,0,1-1.028.244,2.645,2.645,0,0,1-1.466-.409A2.486,2.486,0,0,1-20.768-1.4a4.41,4.41,0,0,1-.314-1.739,4.279,4.279,0,0,1,.375-1.834,2.932,2.932,0,0,1,1.054-1.244,2.722,2.722,0,0,1,1.523-.444,2.306,2.306,0,0,1,.74.114,2,2,0,0,1,.59.308.919.919,0,0,1,.321.384h.025V-9.623h2.7V0Zm.057-3.447a1.426,1.426,0,0,0-.257-.908.841.841,0,0,0-.7-.324.834.834,0,0,0-.714.4A1.873,1.873,0,0,0-18.34-3.2q0,1.377.952,1.377a.847.847,0,0,0,.72-.371,1.828,1.828,0,0,0,.27-1.082Zm11.215,0a4.624,4.624,0,0,1-.362,1.885A2.922,2.922,0,0,1-6.567-.292,2.574,2.574,0,0,1-8.052.159,1.99,1.99,0,0,1-9.785-.673H-9.81V2.99h-2.7V-6.5h2.7v.882h.025a2.29,2.29,0,0,1,.838-.765,2.429,2.429,0,0,1,1.168-.276,2.322,2.322,0,0,1,1.927.838A3.718,3.718,0,0,1-5.183-3.447Zm-2.742.083a1.694,1.694,0,0,0-.238-.965A.826.826,0,0,0-8.9-4.678a.824.824,0,0,0-.7.368A1.691,1.691,0,0,0-9.861-3.3v.127a1.85,1.85,0,0,0,.229.984.754.754,0,0,0,.686.368.854.854,0,0,0,.755-.4A2.058,2.058,0,0,0-7.925-3.364ZM.655-4.183A2.1,2.1,0,0,0,.243-4.31a2.088,2.088,0,0,0-.432-.057q-1.339,0-1.339,1.549V0h-2.7V-6.5h2.7v1.143H-1.5a2.03,2.03,0,0,1,.7-.936A1.81,1.81,0,0,1,.268-6.614a.916.916,0,0,1,.387.076ZM3.7-2.482a.913.913,0,0,0,.482.657,2.175,2.175,0,0,0,1.092.238,4.5,4.5,0,0,0,1.79-.362V-.235A6.434,6.434,0,0,1,4.678.159a3.766,3.766,0,0,1-2.647-.87A3.089,3.089,0,0,1,1.085-3.1,3.948,3.948,0,0,1,1.5-4.951,2.992,2.992,0,0,1,2.733-6.2a3.638,3.638,0,0,1,1.8-.454,3.541,3.541,0,0,1,1.727.394,2.622,2.622,0,0,1,1.089,1.1A3.544,3.544,0,0,1,7.719-3.5v1.016ZM5.326-3.9q0-1.124-.806-1.124a.682.682,0,0,0-.565.308,1.536,1.536,0,0,0-.267.816Zm8.542,1.739a1.985,1.985,0,0,1-.841,1.711,3.953,3.953,0,0,1-2.345.606A8.155,8.155,0,0,1,9.6.07,6.686,6.686,0,0,1,8.549-.146v-1.9a5.173,5.173,0,0,0,2.006.533q.793,0,.793-.413a.326.326,0,0,0-.184-.282,6.507,6.507,0,0,0-.965-.371A2.725,2.725,0,0,1,8.942-3.3a1.721,1.721,0,0,1-.394-1.174,1.874,1.874,0,0,1,.8-1.6,3.767,3.767,0,0,1,2.257-.587,7.173,7.173,0,0,1,1.8.248v1.822a5.452,5.452,0,0,0-.876-.286,3.538,3.538,0,0,0-.8-.114.871.871,0,0,0-.425.089.273.273,0,0,0-.159.248.345.345,0,0,0,.171.3,3.032,3.032,0,0,0,.686.273,3.181,3.181,0,0,1,1.428.749A1.641,1.641,0,0,1,13.868-2.158Zm6.213,0A1.985,1.985,0,0,1,19.24-.448a3.953,3.953,0,0,1-2.345.606A8.155,8.155,0,0,1,15.812.07a6.686,6.686,0,0,1-1.051-.216v-1.9a5.173,5.173,0,0,0,2.006.533q.793,0,.793-.413a.326.326,0,0,0-.184-.282,6.507,6.507,0,0,0-.965-.371A2.725,2.725,0,0,1,15.155-3.3a1.721,1.721,0,0,1-.394-1.174,1.874,1.874,0,0,1,.8-1.6,3.767,3.767,0,0,1,2.257-.587,7.173,7.173,0,0,1,1.8.248v1.822a5.452,5.452,0,0,0-.876-.286,3.538,3.538,0,0,0-.8-.114.871.871,0,0,0-.425.089.273.273,0,0,0-.159.248.345.345,0,0,0,.171.3,3.032,3.032,0,0,0,.686.273,3.181,3.181,0,0,1,1.428.749A1.641,1.641,0,0,1,20.081-2.158ZM29.917-.184A2.549,2.549,0,0,1,29.1.063a7.741,7.741,0,0,1-1.289.1,3.964,3.964,0,0,1-1.838-.416,3.034,3.034,0,0,1-1.254-1.165A3.234,3.234,0,0,1,24.274-3.1a3.684,3.684,0,0,1,.473-1.914A3.083,3.083,0,0,1,26.1-6.237a4.627,4.627,0,0,1,2.031-.422,7.106,7.106,0,0,1,1.139.083,1.741,1.741,0,0,1,.651.19v2.107a1.878,1.878,0,0,0-.584-.279,2.346,2.346,0,0,0-.7-.121,1.716,1.716,0,0,0-1.2.378,1.374,1.374,0,0,0-.409,1.063,1.349,1.349,0,0,0,.4,1.044,1.572,1.572,0,0,0,1.108.371,2.759,2.759,0,0,0,1.39-.362ZM39.361,0V-3.745a1.2,1.2,0,0,0-.168-.7.633.633,0,0,0-.549-.232.686.686,0,0,0-.584.282,1.293,1.293,0,0,0-.209.784V0h-2.7V-3.682q0-1-.679-1a.719.719,0,0,0-.622.289,1.4,1.4,0,0,0-.209.828V0h-2.7V-6.5h2.7v1.028h.025a2.1,2.1,0,0,1,.486-.555,2.85,2.85,0,0,1,.752-.457,2.336,2.336,0,0,1,.908-.175,2.3,2.3,0,0,1,1.165.273,2.117,2.117,0,0,1,.79.863,2.316,2.316,0,0,1,.914-.841,2.724,2.724,0,0,1,1.27-.3,1.91,1.91,0,0,1,1.568.667,2.968,2.968,0,0,1,.546,1.923V0ZM48.5-2.158a1.985,1.985,0,0,1-.841,1.711,3.953,3.953,0,0,1-2.345.606A8.155,8.155,0,0,1,44.231.07,6.686,6.686,0,0,1,43.18-.146v-1.9a5.173,5.173,0,0,0,2.006.533q.793,0,.793-.413a.326.326,0,0,0-.184-.282,6.507,6.507,0,0,0-.965-.371A2.725,2.725,0,0,1,43.574-3.3a1.721,1.721,0,0,1-.394-1.174,1.874,1.874,0,0,1,.8-1.6,3.767,3.767,0,0,1,2.257-.587,7.173,7.173,0,0,1,1.8.248v1.822a5.452,5.452,0,0,0-.876-.286,3.538,3.538,0,0,0-.8-.114.871.871,0,0,0-.425.089.273.273,0,0,0-.159.248.345.345,0,0,0,.171.3,3.032,3.032,0,0,0,.686.273,3.181,3.181,0,0,1,1.428.749A1.641,1.641,0,0,1,48.5-2.158Z" transform="translate(803 1091.623)"/></g></svg>