<svg xmlns="http://www.w3.org/2000/svg" width="61.854" height="67.159" viewBox="0 0 61.854 67.159"><g transform="translate(-966.791 -2383)"><path d="M-24.7,0l-.4-1.676h-2.717L-28.245,0h-2.964l3.136-9.1h3.4L-21.72,0Zm-1.727-7.122h-.063a4.422,4.422,0,0,1-.089.5q-.076.349-.768,3H-25.6L-26.239-6.1A7.829,7.829,0,0,1-26.423-7.122ZM-16.624,0V-.755h-.025a2.231,2.231,0,0,1-.844.67,2.406,2.406,0,0,1-1.028.244,2.645,2.645,0,0,1-1.466-.409A2.486,2.486,0,0,1-20.937-1.4a4.41,4.41,0,0,1-.314-1.739,4.279,4.279,0,0,1,.375-1.834,2.932,2.932,0,0,1,1.054-1.244A2.722,2.722,0,0,1-18.3-6.659a2.306,2.306,0,0,1,.74.114,2,2,0,0,1,.59.308.919.919,0,0,1,.321.384h.025V-9.623h2.7V0Zm.057-3.447a1.426,1.426,0,0,0-.257-.908.841.841,0,0,0-.7-.324.834.834,0,0,0-.714.4A1.873,1.873,0,0,0-18.509-3.2q0,1.377.952,1.377a.847.847,0,0,0,.72-.371,1.828,1.828,0,0,0,.27-1.082Zm11.113.083A3.385,3.385,0,0,1-6.447-.781,3.882,3.882,0,0,1-9.224.159a3.9,3.9,0,0,1-2.758-.917,3.283,3.283,0,0,1-.987-2.53,3.389,3.389,0,0,1,.463-1.8,3.013,3.013,0,0,1,1.32-1.168,4.558,4.558,0,0,1,1.974-.406,4.415,4.415,0,0,1,2,.425,3.1,3.1,0,0,1,1.3,1.181A3.215,3.215,0,0,1-5.454-3.364ZM-8.2-3.352q0-1.327-1.016-1.327t-1.016,1.39q0,1.466,1.028,1.466Q-8.2-1.822-8.2-3.352Zm11.018-.1A4.757,4.757,0,0,1,2.47-1.558a2.871,2.871,0,0,1-1,1.27A2.518,2.518,0,0,1,0,.159,2.315,2.315,0,0,1-1.072-.073a1.938,1.938,0,0,1-.708-.6h-.025V0h-2.7V-9.623h2.7v4.005h.025a2.227,2.227,0,0,1,.86-.762,2.576,2.576,0,0,1,1.2-.279,2.28,2.28,0,0,1,1.888.819A3.755,3.755,0,0,1,2.822-3.447ZM.08-3.364a1.613,1.613,0,0,0-.251-.984.85.85,0,0,0-.72-.33.848.848,0,0,0-.689.346,1.4,1.4,0,0,0-.276.9v.394a1.447,1.447,0,0,0,.248.889.79.79,0,0,0,.667.33.854.854,0,0,0,.755-.4A2.058,2.058,0,0,0,.08-3.364ZM6.1-2.482a.913.913,0,0,0,.482.657,2.175,2.175,0,0,0,1.092.238,4.5,4.5,0,0,0,1.79-.362V-.235A6.434,6.434,0,0,1,7.08.159a3.766,3.766,0,0,1-2.647-.87A3.089,3.089,0,0,1,3.487-3.1,3.948,3.948,0,0,1,3.9-4.951,2.992,2.992,0,0,1,5.134-6.2a3.638,3.638,0,0,1,1.8-.454,3.541,3.541,0,0,1,1.727.394,2.622,2.622,0,0,1,1.089,1.1A3.544,3.544,0,0,1,10.121-3.5v1.016ZM7.728-3.9q0-1.124-.806-1.124a.682.682,0,0,0-.565.308A1.536,1.536,0,0,0,6.09-3.9ZM19.791,0l-1.13-2.495a1.742,1.742,0,0,1-.143-.46q-.035-.225-.054-.371h-.025q-.038.152-.089.4a2.755,2.755,0,0,1-.146.482L17.151,0H13.888l2.729-4.539L14.136-9.1h3.313L18.331-6.7a5.859,5.859,0,0,1,.222.889h.025a3.607,3.607,0,0,1,.235-.9L19.842-9.1H22.9L20.337-4.589,23.016,0ZM27.94,0V-.755h-.025a2.231,2.231,0,0,1-.844.67,2.406,2.406,0,0,1-1.028.244,2.645,2.645,0,0,1-1.466-.409A2.486,2.486,0,0,1,23.627-1.4a4.41,4.41,0,0,1-.314-1.739,4.279,4.279,0,0,1,.375-1.834,2.932,2.932,0,0,1,1.054-1.244,2.722,2.722,0,0,1,1.523-.444,2.306,2.306,0,0,1,.74.114,2,2,0,0,1,.59.308.919.919,0,0,1,.321.384h.025V-9.623h2.7V0ZM28-3.447a1.426,1.426,0,0,0-.257-.908.841.841,0,0,0-.7-.324.834.834,0,0,0-.714.4A1.873,1.873,0,0,0,26.055-3.2q0,1.377.952,1.377a.847.847,0,0,0,.72-.371A1.828,1.828,0,0,0,28-3.275Z" transform="translate(998 2450)"/><g transform="translate(973 2383)"><ellipse cx="25" cy="25" rx="25" ry="25" transform="translate(0 0)" fill="#592b49"/><path d="M129.817,159.937l-8.59-8.59h-3.855v7.243a5.455,5.455,0,0,0-4.225-2.03,6.564,6.564,0,0,0-1.226.112l-5.325-5.325H101.89L98.861,156.3l-4.954-4.954H89.16l6.228,9.616-6.873,10.494,15.077,15.077q.636.032,1.279.032a25,25,0,0,0,25-25C129.871,161.019,129.851,160.476,129.817,159.937Z" transform="translate(-79.871 -136.567)" fill="#291221"/><g transform="translate(8.644 14.78)"><path d="M88.515,171.458l6.873-10.494-6.228-9.616h4.746l4.033,6.461,3.951-6.461H106.6l-6.256,9.767,6.873,10.343h-4.9L97.857,164.5l-4.472,6.955Z" transform="translate(-88.515 -151.347)" fill="#da2286"/><path d="M292.042,171.458h-3.58v-2.14a5.783,5.783,0,0,1-2.106,1.859,5.4,5.4,0,0,1-2.449.611,5.549,5.549,0,0,1-4.3-2.023,8.231,8.231,0,0,1-1.79-5.645,8.135,8.135,0,0,1,1.742-5.631,5.68,5.68,0,0,1,4.4-1.927,5.456,5.456,0,0,1,4.225,2.03v-7.243h3.855v20.111Zm-10.289-7.6a6.668,6.668,0,0,0,.645,3.375A2.912,2.912,0,0,0,285,168.742a2.837,2.837,0,0,0,2.263-1.132,5.224,5.224,0,0,0,.933-3.382,5.718,5.718,0,0,0-.905-3.615,2.866,2.866,0,0,0-2.318-1.1,2.9,2.9,0,0,0-2.3,1.091A4.927,4.927,0,0,0,281.753,163.858Z" transform="translate(-259.33 -151.347)" fill="#da2286"/></g></g></g></svg>