<svg xmlns="http://www.w3.org/2000/svg" width="41.792" height="34.411" viewBox="0 0 41.792 34.411"><g transform="translate(3.756 0.513)"><g transform="translate(-5.154)"><path d="M.65.091l.169,5.77" transform="translate(11.836 27.974) rotate(135)" fill="none" stroke="#7510f7" stroke-width="1"/><g transform="translate(34.036) rotate(45)" fill="none"><path d="M0,0,3.61-.106,3.522,2.9l-3.61.106Z" stroke="none"/><path d="M 2.579281091690063 0.9249809980392456 L 0.9719948768615723 0.9719948768615723 L 0.9425797462463379 1.977640986442566 L 2.549865961074829 1.930627107620239 L 2.579281091690063 0.9249809980392456 M 3.609850406646729 -0.1055889129638672 L 3.521860361099243 2.902621030807495 L -0.08798956871032715 3.008210897445679 L 4.76837158203125e-07 9.5367431640625e-07 L 3.609850406646729 -0.1055889129638672 Z" stroke="none" fill="#7510f7"/></g><g transform="translate(39.145 7.349) rotate(135)" fill="none"><path d="M1.228,3.911,35.1,4.9l3.838,3.716-3.658,2.458L1.408,10.086Z" stroke="none"/><path d="M 2.258468627929688 4.942045211791992 L 2.3804931640625 9.11384105682373 L 34.99327850341797 10.06774425506592 L 37.35926818847656 8.477437973022461 L 34.68727874755859 5.890566825866699 L 2.258468627929688 4.942045211791992 M 1.227901458740234 3.911476135253906 L 35.10420227050781 4.902336120605469 L 38.94237899780273 8.618246078491211 L 35.2848014831543 11.07669639587402 L 1.408500671386719 10.08583641052246 L 1.227901458740234 3.911476135253906 Z" stroke="none" fill="#7510f7"/></g><path d="M0,.02S1.971-.357,2.079-.114,2.2,4.334,2.2,4.334" transform="translate(34.478 6.11) rotate(45)" fill="none" stroke="#7510f7" stroke-width="1"/></g><g transform="translate(-6.664 1.402)"><g transform="matrix(0.799, 0.602, -0.602, 0.799, 6.554, 0)"><g transform="translate(0 0)" fill="#fff"><path d="M 0.6791672110557556 5.529636859893799 L 0.5154953598976135 0.4708970785140991 L 41.14723205566406 -1.889375805854797 L 45.05072784423828 0.8512603640556335 L 41.33183670043945 3.168147563934326 L 0.6791672110557556 5.529636859893799 Z" stroke="none"/><path d="M 41.00241851806641 -1.380120277404785 L 1.030994415283203 0.9417960643768311 L 1.162319183349609 5.00072717666626 L 41.17561340332031 2.676378488540649 L 44.14512252807617 0.8263609409332275 L 41.00241851806641 -1.380120277404785 M 41.29203796386719 -2.398632526397705 L 45.95633697509766 0.8761575222015381 L 41.48805618286133 3.659917593002319 L 0.1960182189941406 6.058547496795654 L -3.814697265625e-06 -2.622604370117188e-06 L 41.29203796386719 -2.398632526397705 Z" stroke="none" fill="#7510f7"/></g><path d="M0,0,.176,5.447" transform="translate(41.37 -2.162)" fill="#fff" stroke="#7510f7" stroke-width="1"/><path d="M0,0,.182,5.613" transform="translate(3.678 0.028)" fill="#fff" stroke="#7510f7" stroke-width="1"/></g></g></g></svg>