<svg xmlns="http://www.w3.org/2000/svg" width="25" height="25" viewBox="0 0 25 25">
  <path id="icons8-github" d="M13.137,2.12A12.692,12.692,0,0,0,2.115,13.338a13.013,13.013,0,0,0,7.891,13.539c.376.129.752-.129.752-.645V24.169A5.028,5.028,0,0,1,9.63,24.3,2.738,2.738,0,0,1,7,21.848a2.691,2.691,0,0,0-.752-1.289c-.376-.129-.5-.129-.5-.258,0-.258.376-.258.5-.258.752,0,1.378.9,1.628,1.289A2.28,2.28,0,0,0,9.63,22.622a2.443,2.443,0,0,0,1.127-.258,3.292,3.292,0,0,1,1.253-2.321C9.129,19.4,7,17.722,7,14.885a6.176,6.176,0,0,1,1.5-3.868,4.911,4.911,0,0,1-.251-1.805,4.534,4.534,0,0,1,.376-2.063,5.553,5.553,0,0,1,3.507,1.676,6.6,6.6,0,0,1,2.38-.387,7.864,7.864,0,0,1,2.505.387,5.32,5.32,0,0,1,3.507-1.676,6.587,6.587,0,0,1,.251,2.063,4.4,4.4,0,0,1-.251,1.805,5.9,5.9,0,0,1,1.5,3.868c0,2.837-2.129,4.513-5.01,5.158a4.03,4.03,0,0,1,1.253,2.966v3.352a.686.686,0,0,0,.877.645,12.954,12.954,0,0,0,7.891-11.991C27.041,7.278,20.653,1.217,13.137,2.12Z" transform="translate(-2.041 -2.031)" fill="#fff"/>
</svg>
