<svg xmlns="http://www.w3.org/2000/svg" width="684.176" height="371.322" viewBox="0 0 684.176 371.322"><g transform="translate(-23.824 -868.614)"><g transform="translate(146.84 1133.871)" fill="#eae4e4"><path d="M 288.450439453125 105.0656127929688 L 0.9999889731407166 105.0656127929688 L 0.9999889731407166 0.9999986886978149 L 288.450439453125 0.9999986886978149 L 288.450439453125 105.0656127929688 Z" stroke="none"/><path d="M 2 2 L 2 104.0656127929688 L 287.450439453125 104.0656127929688 L 287.450439453125 2 L 2 2 M 0 0 L 289.450439453125 0 L 289.450439453125 106.0656127929688 L 0 106.0656127929688 L 0 0 Z" stroke="none"/></g><g transform="translate(25.332 772)"><g transform="translate(341.668 200)" fill="#eae4e4" stroke="#000" stroke-width="2"><rect width="93" height="126" rx="5" stroke="none"/><rect x="1" y="1" width="91" height="124" rx="4" fill="none"/></g><g transform="translate(235.668 206)" fill="#eae4e4" stroke="#000" stroke-width="2"><rect width="52" height="112" rx="5" stroke="none"/><rect x="1" y="1" width="50" height="110" rx="4" fill="none"/></g><g transform="translate(23.056 228.769)" fill="#eae4e4"><path d="M 120.1120834350586 73.86983489990234 L 9.845251083374023 73.86983489990234 C 4.967967987060547 73.86983489990234 1.000001549720764 69.65365600585938 1.000001549720764 64.47125244140625 L 1.000001549720764 10.39858818054199 C 1.000001549720764 5.216187953948975 4.967967987060547 1.000004649162292 9.845251083374023 1.000004649162292 L 120.1120834350586 1.000004649162292 C 124.9893646240234 1.000004649162292 128.9573364257813 5.216187953948975 128.9573364257813 10.39858818054199 L 128.9573364257813 64.47125244140625 C 128.9573364257813 69.65365600585938 124.9893646240234 73.86983489990234 120.1120834350586 73.86983489990234 Z" stroke="none"/><path d="M 9.845252990722656 1.999992370605469 C 5.519355773925781 1.999992370605469 1.999992370605469 5.767593383789063 1.999992370605469 10.39859771728516 L 1.999992370605469 64.47125244140625 C 1.999992370605469 69.10224914550781 5.519355773925781 72.86985015869141 9.845252990722656 72.86985015869141 L 120.1120834350586 72.86985015869141 C 124.4379806518555 72.86985015869141 127.9573440551758 69.10224914550781 127.9573440551758 64.47125244140625 L 127.9573440551758 10.39859771728516 C 127.9573440551758 5.767593383789063 124.4379806518555 1.999992370605469 120.1120834350586 1.999992370605469 L 9.845252990722656 1.999992370605469 M 9.845252990722656 -7.62939453125e-06 L 120.1120834350586 -7.62939453125e-06 C 125.5494689941406 -7.62939453125e-06 129.9573364257813 4.655609130859375 129.9573364257813 10.39859771728516 L 129.9573364257813 64.47125244140625 C 129.9573364257813 70.21424865722656 125.5494689941406 74.86985015869141 120.1120834350586 74.86985015869141 L 9.845252990722656 74.86985015869141 C 4.407867431640625 74.86985015869141 0 70.21424865722656 0 64.47125244140625 L 0 10.39859771728516 C 0 4.655609130859375 4.407867431640625 -7.62939453125e-06 9.845252990722656 -7.62939453125e-06 Z" stroke="none"/></g><g transform="translate(0 158.318)"><path d="M8.256-.272a8.224,8.224,0,0,1,8.229,8.6L15.248,83.44A8.92,8.92,0,0,1,6.73,92.326a8.224,8.224,0,0,1-8.229-8.6L-.262,8.614A8.92,8.92,0,0,1,8.256-.272Z" transform="translate(44.139 88.516) rotate(161)" fill="#7510f7"/><path d="M-.561,18.4a26.853,26.853,0,0,0,8.613,1.791,28.4,28.4,0,0,0,8.573-1.978L7.978-.264Z" transform="translate(46.965 97.171) rotate(161)" fill="#d6c077" stroke="#d6c077" stroke-width="1"/><path d="M-.254,8.336a12.859,12.859,0,0,0,4.574.882,10.854,10.854,0,0,0,4.3-1.034L4.44-.147Z" transform="translate(44.009 99.757) rotate(161)"/></g><path d="M16227.932,9613.5s4.689-14.365,17.352-23.777,27.668-5.447,27.668-5.447" transform="translate(-16189.256 -9337.108)" fill="none" stroke="red" stroke-width="0.5" stroke-dasharray="1 1"/><circle cx="2" cy="2" r="2" transform="translate(36.668 276)" fill="red"/><ellipse cx="2" cy="1.5" rx="2" ry="1.5" transform="translate(81.668 246)" fill="red"/><path d="M7.381-.376a40.29,40.29,0,0,1-3.053,8.01,48.2,48.2,0,0,1-5.083,7.5L2.493,35.043l8.682-.232,3.212-20.085a20.375,20.375,0,0,1-4.1-5.932A52.659,52.659,0,0,1,7.381-.376Z" transform="translate(50.484 256.487) rotate(-39)" fill="#685858" stroke="#000" stroke-width="0.5"/><path d="M0,0,14.09-.379l-.162,6.108-14.09.379Z" transform="translate(72.69 283.627) rotate(-39)" fill="#f8e70b"/><path d="M3.572-.182-.46,9.215l8.871-.239Z" transform="translate(57.481 259.618) rotate(-39)" fill="#fff"/><path d="M16260.051,9608.054l11.973-29.762,4.389-1.16-.549,3.826-12.189,29.459Z" transform="translate(-16156.161 -9339.77)" fill="none" stroke="#707070" stroke-width="0.5"/><path d="M1.5,30.758,12.957,1.895,17.409.875l-.463,3.737L5.261,33.175Z" transform="translate(126.524 247.216) rotate(37)" fill="none" stroke="#707070" stroke-width="0.5"/><g transform="translate(97.668 269)" fill="#fefe05" stroke="#ca1111" stroke-width="2"><circle cx="7" cy="7" r="7" stroke="none"/><circle cx="7" cy="7" r="6" fill="none"/></g><g transform="translate(243.668 243)" fill="#fff" stroke="#000" stroke-width="1"><circle cx="5" cy="5" r="5" stroke="none"/><circle cx="5" cy="5" r="4.5" fill="none"/></g><line x2="17.721" transform="translate(256.388 244.367)" fill="none" stroke="#000" stroke-width="1"/><line x2="13.783" transform="translate(256.388 248.526)" fill="none" stroke="#000" stroke-width="1"/><line x2="9.845" transform="translate(256.388 252.686)" fill="none" stroke="#000" stroke-width="1"/><g transform="translate(350.668 243)" fill="none" stroke="#000" stroke-width="1"><ellipse cx="6.5" cy="7" rx="6.5" ry="7" stroke="none"/><ellipse cx="6.5" cy="7" rx="6" ry="6.5" fill="none"/></g><line x2="37.412" transform="translate(368.624 246.447)" fill="none" stroke="#000" stroke-width="1"/><line x2="31.505" transform="translate(368.624 250.606)" fill="none" stroke="#000" stroke-width="1"/><line x2="23.629" transform="translate(368.624 254.765)" fill="none" stroke="#000" stroke-width="1"/><path d="M-8438.04,2563l-4.755,24.511h46.207L-8402.7,2563Z" transform="translate(8997.9 -2240.863)" fill="rgba(234,228,228,0)" stroke="#000" stroke-width="1"/><g transform="translate(473.969 199.653)" fill="#eae4e4" stroke="#000" stroke-width="2"><rect width="208.7" height="122.703" rx="5" stroke="none"/><rect x="1" y="1" width="206.7" height="120.703" rx="4" fill="none"/></g><g transform="translate(180.668 189)" fill="none" stroke="#7510f7" stroke-width="1"><ellipse cx="30.5" cy="32" rx="30.5" ry="32" stroke="none"/><ellipse cx="30.5" cy="32" rx="30" ry="31.5" fill="none"/></g><text transform="translate(210.668 230)" font-size="27" font-family="ArialMT, Arial" letter-spacing="-0.005em"><tspan x="-19.383" y="0">&lt;/&gt;</tspan></text><path d="M16250.535,9707.528v-82.591h128.074v82.591" transform="translate(-15994.078 -9527.323)" fill="none" stroke="#7510f7" stroke-width="2"/><path d="M16336.338,9634.969l7.668-10.215,9.336,10.215" transform="translate(-16080.269 -9288.351)" fill="none" stroke="#7510f7" stroke-width="1"/><path d="M16336.338,9634.969l7.668-10.215,9.336,10.215" transform="translate(-15777.034 -9267.555)" fill="none" stroke="#7510f7" stroke-width="1"/><path d="M16336.338,9624.753l7.668,10.214,9.336-10.214" transform="translate(-15960.157 -9452.647)" fill="none" stroke="#7510f7" stroke-width="1"/><g transform="translate(511.668 237)" fill="none" stroke="#000" stroke-width="1"><ellipse cx="6.5" cy="7.5" rx="6.5" ry="7.5" stroke="none"/><ellipse cx="6.5" cy="7.5" rx="6" ry="7" fill="none"/></g><g transform="translate(511.668 257)" fill="none" stroke="#000" stroke-width="1"><ellipse cx="6.5" cy="7.5" rx="6.5" ry="7.5" stroke="none"/><ellipse cx="6.5" cy="7.5" rx="6" ry="7" fill="none"/></g><line x2="37.412" transform="translate(530.087 240.207)" fill="none" stroke="#000" stroke-width="1"/><line x2="31.505" transform="translate(530.087 244.367)" fill="none" stroke="#000" stroke-width="1"/><line x2="23.629" transform="translate(530.087 248.526)" fill="none" stroke="#000" stroke-width="1"/><line x2="37.412" transform="translate(530.087 261.005)" fill="none" stroke="#000" stroke-width="1"/><line x2="31.505" transform="translate(530.087 265.164)" fill="none" stroke="#000" stroke-width="1"/><line x2="23.629" transform="translate(530.087 269.323)" fill="none" stroke="#000" stroke-width="1"/><line x2="37.412" transform="translate(585.22 261.005)" fill="none" stroke="#000" stroke-width="1"/><line x2="31.505" transform="translate(585.22 265.164)" fill="none" stroke="#000" stroke-width="1"/><line x2="23.629" transform="translate(585.22 269.323)" fill="none" stroke="#000" stroke-width="1"/><line x2="37.412" transform="translate(585.22 240.207)" fill="none" stroke="#000" stroke-width="1"/><line x2="31.505" transform="translate(585.22 244.367)" fill="none" stroke="#000" stroke-width="1"/><line x2="23.629" transform="translate(585.22 248.526)" fill="none" stroke="#000" stroke-width="1"/><path d="M16250.535,9624.938v82.591h182.576v-82.591" transform="translate(-16169.322 -9288.154)" fill="none" stroke="#7510f7" stroke-width="2"/><path d="M16250.535,9624.938v82.591h182.576v-61.55" transform="translate(-15866.089 -9288.154)" fill="none" stroke="#7510f7" stroke-width="2"/></g><text transform="translate(307 897)" font-size="20" font-family="SitkaDisplay-BoldItalic, Sitka Display" font-weight="700" font-style="italic"><tspan x="0" y="0">Adaptive</tspan></text><text transform="translate(78 1096)" font-size="20" font-family="SitkaDisplay-BoldItalic, Sitka Display" font-weight="700" font-style="italic"><tspan x="0" y="0">Design</tspan></text><text transform="translate(214 1043)" font-size="20" font-family="SitkaDisplay-BoldItalic, Sitka Display" font-weight="700" font-style="italic"><tspan x="0" y="0">Code</tspan></text><text transform="translate(483 1178)" font-size="20" font-family="SitkaDisplay-BoldItalic, Sitka Display" font-weight="700" font-style="italic"><tspan x="0" y="0">Fluid</tspan></text><g transform="translate(157.67 1151.549)"><line x2="41.35" fill="none" stroke="#707070" stroke-width="1"/><line x2="41.35" transform="translate(72.855)" fill="none" stroke="#707070" stroke-width="1"/><line x2="41.35" transform="translate(145.71)" fill="none" stroke="#707070" stroke-width="1"/><line x2="41.35" transform="translate(218.565)" fill="none" stroke="#707070" stroke-width="1"/></g><g transform="translate(157.67 1174.425)"><line x2="41.35" fill="none" stroke="#707070" stroke-width="1"/><line x2="41.35" transform="translate(72.855)" fill="none" stroke="#707070" stroke-width="1"/><line x2="41.35" transform="translate(145.71)" fill="none" stroke="#707070" stroke-width="1"/><line x2="41.35" transform="translate(218.565)" fill="none" stroke="#707070" stroke-width="1"/></g><g transform="translate(157.67 1189.698)"><line x2="41.35" transform="translate(0 7.604)" fill="none" stroke="#707070" stroke-width="1"/><line x2="41.35" transform="translate(72.855 7.604)" fill="none" stroke="#707070" stroke-width="1"/><line x2="41.35" transform="translate(218.565 7.604)" fill="none" stroke="#707070" stroke-width="1"/><rect width="44" height="17" transform="translate(144.33 0.302)"/></g><g transform="translate(157.67 1220.179)"><line x2="41.35" fill="none" stroke="#707070" stroke-width="1"/><line x2="41.35" transform="translate(72.855)" fill="none" stroke="#707070" stroke-width="1"/><line x2="41.35" transform="translate(145.71)" fill="none" stroke="#707070" stroke-width="1"/><line x2="41.35" transform="translate(218.565)" fill="none" stroke="#707070" stroke-width="1"/></g><text transform="translate(313 1200)" fill="#fff" font-size="9" font-family="SitkaDisplay-BoldItalic, Sitka Display" font-weight="700" font-style="italic"><tspan x="0" y="0">Enter</tspan></text></g></svg>