<svg xmlns="http://www.w3.org/2000/svg" width="10.227" height="19" viewBox="0 0 10.227 19">
  <path id="icons8-facebook-f" d="M19.867,5.717h1.967a.4.4,0,0,0,.393-.413V2.522a.4.4,0,0,0-.364-.412C21.237,2.063,20.014,2,19.135,2c-2.415,0-3.989,1.52-3.989,4.282V9.022H12.393A.4.4,0,0,0,12,9.435v2.891a.4.4,0,0,0,.393.413h2.753v7.848A.4.4,0,0,0,15.54,21h2.753a.4.4,0,0,0,.393-.413V12.739h2.841a.4.4,0,0,0,.391-.368l.306-2.891a.406.406,0,0,0-.391-.458H18.687V6.957A1.211,1.211,0,0,1,19.867,5.717Z" transform="translate(-12 -2)" fill="#fff"/>
</svg>
