<svg xmlns="http://www.w3.org/2000/svg" width="25" height="25" viewBox="0 0 25 25">
  <path id="icons8-linkedin-2" d="M5.261,3.01A2.981,2.981,0,0,0,2.005,5.882,3.041,3.041,0,0,0,5.261,8.814,3.01,3.01,0,0,0,8.516,5.848,3.038,3.038,0,0,0,5.261,3.01ZM2.543,9.982A.565.565,0,0,0,2,10.564V27.428a.565.565,0,0,0,.543.582H7.978a.565.565,0,0,0,.543-.582V10.564a.565.565,0,0,0-.543-.582Zm8.152,0a.565.565,0,0,0-.543.582V27.428a.565.565,0,0,0,.543.582h4.891a.564.564,0,0,0,.543-.582V18.415a2.545,2.545,0,0,1,2.25-2.606,1.688,1.688,0,0,1,.391,0,2.545,2.545,0,0,1,2.25,2.606v9.014a.564.564,0,0,0,.543.582h4.891A.565.565,0,0,0,27,27.428V17.542c0-3.762-1.886-7.56-6.093-7.56a7.036,7.036,0,0,0-4.233,1.448v-.867a.565.565,0,0,0-.543-.582Z" transform="translate(-2 -3.01)" fill="#fff"/>
</svg>
