<svg xmlns="http://www.w3.org/2000/svg" width="25" height="25" viewBox="0 0 25 25">
  <path id="whatsapp_img" d="M14.5,2A12.448,12.448,0,0,0,3.622,20.592L2.02,26.31a.544.544,0,0,0,.654.674l5.962-1.478A12.488,12.488,0,1,0,14.5,2Zm0,1.087A11.413,11.413,0,1,1,8.936,24.464a.544.544,0,0,0-.4-.053L3.318,25.7l1.4-5a.544.544,0,0,0-.054-.424A11.411,11.411,0,0,1,14.5,3.087ZM9.958,7.978a1.728,1.728,0,0,0-1.255.57,4.233,4.233,0,0,0-1.268,3.014,6.409,6.409,0,0,0,1.42,3.606h0c-.015-.019.194.284.473.646a17.215,17.215,0,0,0,1.159,1.356,12.586,12.586,0,0,0,4.069,2.954,19.359,19.359,0,0,0,1.88.686,5.01,5.01,0,0,0,2.264.144,3.821,3.821,0,0,0,1.425-.588A2.641,2.641,0,0,0,21.3,19.1a4.484,4.484,0,0,0,.255-1.119,2.564,2.564,0,0,0,.005-.428.745.745,0,0,0-.12-.427c-.253-.415-.54-.426-.839-.574-.166-.082-.639-.313-1.113-.539s-.884-.426-1.137-.516a1.281,1.281,0,0,0-.636-.108,1.082,1.082,0,0,0-.721.474c-.153.227-.77.956-.959,1.17,0,0,.014.006-.06-.031-.233-.115-.517-.213-.938-.435A7.765,7.765,0,0,1,13.512,15.5h0a8.977,8.977,0,0,1-1.648-2.022c.013-.015,0,0,.025-.023h0c.194-.191.365-.419.511-.586a2.71,2.71,0,0,0,.395-.641,1.2,1.2,0,0,0-.027-1.042h0c.008.016-.061-.137-.136-.313s-.17-.406-.272-.65c-.2-.488-.431-1.036-.566-1.357h0a1.414,1.414,0,0,0-.656-.781,1.05,1.05,0,0,0-.54-.094h0C10.4,7.981,10.177,7.978,9.958,7.978Zm0,1.087c.21,0,.416,0,.589.011s.167.01.133-.006.012-.021.114.219c.132.314.361.864.565,1.353.1.245.2.475.274.655s.118.281.166.377h0c.047.093.043.033.027.066a1.582,1.582,0,0,1-.246.417c-.177.2-.357.43-.452.524a1.168,1.168,0,0,0-.328.46,1.051,1.051,0,0,0,.1.85,9.945,9.945,0,0,0,1.894,2.327,8.89,8.89,0,0,0,1.735,1.2c.483.255.876.4.964.447a1.221,1.221,0,0,0,.7.152,1.058,1.058,0,0,0,.64-.358h0c.194-.22.77-.878,1.047-1.283.012,0,.008,0,.1.034h0c.042.015.567.25,1.036.473s.944.455,1.1.532c.223.11.328.182.356.183a1.274,1.274,0,0,1,0,.178,3.458,3.458,0,0,1-.194.844,2.05,2.05,0,0,1-.731.723,3.379,3.379,0,0,1-1,.431,3.9,3.9,0,0,1-1.779-.106,18.164,18.164,0,0,1-1.779-.649,11.616,11.616,0,0,1-3.707-2.7,16.154,16.154,0,0,1-1.086-1.271c-.261-.339-.374-.515-.469-.64h0a5.871,5.871,0,0,1-1.2-2.949A2.865,2.865,0,0,1,9.5,9.288.644.644,0,0,1,9.958,9.065Z" transform="translate(-2 -2)" fill="#fff"/>
</svg>
